<svg width="476" height="244" viewBox="0 0 476 244" fill="none" xmlns="http://www.w3.org/2000/svg">
<path d="M23.7772 243.926C23.7772 243.926 -27.3563 135.039 73.422 135.039C126.67 135.039 104.735 105.164 140.936 70.5898C177.138 36.0156 303.741 8.39237 330.689 75.1568C357.635 141.921 291.041 192.611 355.39 183.915C432.719 173.466 463.266 243.924 463.266 243.924H23.7772V243.926Z" fill="#FBECDB"/>
<path d="M437.908 230.111C433.136 226.623 423.387 228.978 416.189 231.496C415.115 229.986 413.811 228.428 412.233 226.907C427.737 216.921 449.148 195.625 437.799 193.822C427.934 192.255 414.621 211.424 407.505 223.093C400.116 218.122 388.795 214.469 371.51 215.736C326.649 219.025 291.603 190.09 265.77 199.74C245.231 207.413 226.406 211.712 208.253 210.243C209.034 196.982 209.204 170.945 198.789 168.244C188.217 165.502 198.587 195.072 204.351 209.836C202.998 209.663 201.649 209.456 200.303 209.218C196.572 201.86 190.422 192.23 183.667 191.899C177.308 191.59 185.156 200.246 192.882 207.581C170.682 202.92 144.347 220.966 143.91 242.302H421.068C421.068 242.302 420.577 239.187 418.401 235.081C429.115 234.871 443.09 233.898 437.908 230.111Z" fill="#A8D29F"/>
<path d="M204.37 225.811H131.321V242.305H204.37V225.811Z" fill="#4A75CB"/>
<path d="M181.845 225.811H108.797V242.307H181.845V225.811Z" fill="#699DEE"/>
<path d="M233.106 242.3H287.499V166.277H233.106V242.3Z" fill="#D86713"/>
<path d="M216.333 242.3H270.726V166.277H216.333V242.3Z" fill="#F1A34F"/>
<path d="M270.726 166.278L287.497 177.693V166.278H270.726Z" fill="#C95C12"/>
<path d="M102.82 183.118C102.82 183.118 92.6474 190.682 90.665 190.222C88.6807 189.763 98.0992 182.058 98.0992 182.058C94.5557 180.354 83.54 181.423 83.54 181.423C83.54 181.423 79.8699 193.256 78.0611 192.322C76.2523 191.389 81.8452 182.011 81.8452 182.011C77.8983 181.772 73.0579 184.704 73.0579 184.704C66.4304 189.937 73.4939 198.177 73.4939 198.177C73.4939 198.177 72.1336 202.251 67.948 205.96C67.948 205.96 61.9699 210.381 61.5557 218.278L62.641 218.376C62.641 218.376 64.3611 211.02 67.4868 207.541C67.608 207.415 67.7852 207.234 68.0023 207.015C68.5124 206.543 68.8687 206.19 69.1075 205.926C70.6631 204.432 72.8119 202.527 73.8484 202.343C73.8484 202.343 73.7959 202.153 73.805 201.822C73.8194 201.988 73.8339 202.16 73.8484 202.343C74.2029 206.507 82.2829 210.144 87.2535 210.891C92.2242 211.638 90.6867 209.596 88.9755 206.566C87.2626 203.537 81.8434 202.182 80.6061 200.786C79.3689 199.391 81.9266 199.387 84.9202 200.755C87.9138 202.122 88.3244 205.769 93.1286 208.069C97.9328 210.37 105.161 202.399 105.161 202.399C101.332 202.205 95.8653 198.047 96.0625 196.776C96.2596 195.504 105.344 198.97 106.895 199.136C108.447 199.302 111.982 197.371 112.528 191.116C113.073 184.863 102.82 183.118 102.82 183.118Z" fill="#82B378"/>
<path d="M48.798 187.815C48.798 187.815 60.0326 181.524 54.7907 172.985C54.7907 172.985 50.596 167.742 46.1029 166.394C46.1029 166.394 48.4996 179.128 46.1029 179.426C43.7062 179.727 44.4551 165.047 44.4551 165.047C44.4551 165.047 32.62 159.355 27.9767 159.803C27.9767 159.803 35.3169 172.237 32.9202 171.936C30.5235 171.636 22.2844 159.054 22.2844 159.054C22.2844 159.054 10.1508 156.808 8.2027 163.998C6.2546 171.187 9.40014 174.783 11.1981 175.232C12.9961 175.68 24.5309 175.532 24.2307 177.03C23.9304 178.527 16.1416 180.924 11.7968 179.576C11.7968 179.576 16.5902 191.411 22.8831 190.811C29.1742 190.212 31.1223 186.316 35.0166 186.017C38.911 185.719 41.7581 186.766 39.81 187.815C37.8619 188.864 31.2706 188.159 28.125 190.832C24.9795 193.507 22.4327 195.155 28.2752 196.353C34.1177 197.552 44.6034 196.801 46.6998 192.308C48.798 187.815 48.798 187.815 48.798 187.815Z" fill="#A8D29F"/>
<path d="M51.7935 198.749C48.648 192.906 48.7981 187.813 48.7981 187.813C45.2022 176.429 13.7432 166.244 13.7432 166.244C53.7398 182.421 46.6999 192.308 46.6999 192.308C47.7779 192.937 49.3932 195.934 50.5165 198.235C50.6757 198.626 50.9289 199.168 51.3051 199.903C51.4571 200.236 51.5801 200.507 51.6633 200.697C53.7217 205.85 52.631 214.747 52.631 214.747L53.8791 215.082C56.6448 206.116 51.7935 198.749 51.7935 198.749Z" fill="#82B378"/>
<path d="M66.6709 179.137C66.6709 179.137 51.8602 170.844 58.7717 159.588C58.7717 159.588 64.3013 152.677 70.2252 150.901C70.2252 150.901 67.0652 167.684 70.2252 168.08C73.3852 168.474 72.3976 149.124 72.3976 149.124C72.3976 149.124 87.9969 141.622 94.1197 142.213C94.1197 142.213 84.4443 158.602 87.6025 158.208C90.7626 157.814 101.623 141.227 101.623 141.227C101.623 141.227 117.618 138.265 120.185 147.744C122.752 157.222 118.606 161.961 116.236 162.554C113.867 163.148 98.6617 162.949 99.056 164.924C99.4503 166.899 109.719 170.057 115.446 168.281C115.446 168.281 109.128 183.879 100.834 183.091C92.5406 182.3 89.9739 177.167 84.8387 176.773C79.7052 176.379 75.9519 177.76 78.5205 179.142C81.0872 180.524 89.7768 179.595 93.9226 183.12C98.0684 186.645 101.426 188.817 93.7254 190.396C86.0253 191.975 72.2022 190.99 69.4366 185.064C66.6709 179.137 66.6709 179.137 66.6709 179.137Z" fill="#A8D29F"/>
<path d="M112.879 150.704C112.879 150.704 71.4115 164.13 66.6724 179.137C66.6724 179.137 66.8696 185.851 62.722 193.551C62.722 193.551 56.3278 203.262 59.9725 215.082L61.6186 214.641C61.6186 214.641 60.1806 202.913 62.8956 196.121C63.0059 195.872 63.1669 195.512 63.3677 195.074C63.8633 194.104 64.1961 193.39 64.4078 192.875C65.8856 189.843 68.0164 185.891 69.4381 185.063C69.4363 185.061 60.1552 172.029 112.879 150.704Z" fill="#82B378"/>
<path d="M66.1733 240.718C82.1958 240.718 95.1831 227.729 95.1831 211.709H37.1616C37.1616 227.729 50.1508 240.718 66.1733 240.718Z" fill="#F1A34F"/>
<path d="M73.3111 240.495C72.1317 240.642 70.9289 240.718 69.7061 240.718C53.6854 240.718 40.6963 227.729 40.6963 211.709H47.9026C47.9044 226.51 58.9907 238.721 73.3111 240.495Z" fill="#FFB973"/>
<path d="M92.0057 238.723H40.3404C38.3634 238.723 36.7607 240.325 36.7607 242.302H95.5836C95.5836 240.325 93.9809 238.723 92.0057 238.723Z" fill="#F1A34F"/>
<path d="M95.3985 211.709H36.6535C36.4075 211.709 36.2085 211.908 36.2085 212.154C36.2085 212.4 36.4075 212.599 36.6535 212.599H95.3985C95.6445 212.599 95.8435 212.4 95.8435 212.154C95.8435 211.908 95.6427 211.709 95.3985 211.709Z" fill="#D86713"/>
<path d="M319.258 58.9488C318.417 58.8203 315.883 61.1645 315.883 61.1645C310.473 61.7903 302.561 63.2264 299.714 63.7745C297.695 64.1634 292.267 62.313 286.964 60.1877C280.656 57.6591 274.528 54.7434 274.528 54.7434C271.028 54.5644 267.054 60.9492 274.152 65.0099C275.235 65.6303 279.307 66.6866 283.993 67.6524C283.993 67.6524 283.993 67.6524 283.995 67.6524C290.462 68.9855 298.1 70.1413 300.701 69.7343C303.722 69.2622 312.272 66.1349 317.359 63.7383C317.359 63.7383 317.364 63.7365 317.372 63.7311C317.391 63.722 317.41 63.713 317.428 63.7039C317.733 63.5611 318.978 63.0076 319.808 63.0564C320.761 63.1125 322.883 61.3689 322.948 60.904C323.011 60.4374 320.099 59.0754 319.258 58.9488Z" fill="#ED975D"/>
<path d="M312.653 139.38L309.674 139.986C309.674 139.986 296.041 124.669 293.937 118.223C292.812 114.779 285.615 113.291 278.092 111.346C271.546 109.653 264.754 107.615 261.509 103.635C254.536 95.0872 265.888 84.582 265.888 84.582C265.888 84.582 277.956 91.7555 288.37 99.1642C295.646 104.343 302.115 109.637 303.09 112.679C305.457 120.079 310.477 134.144 312.653 139.38Z" fill="#2B478B"/>
<path d="M308.664 144.434H310.339C310.9 144.346 311.314 144.183 311.891 144.109C312.765 143.995 313.168 144.353 313.248 144.434C313.258 144.445 313.264 144.451 313.264 144.451H320.381C320.561 144.196 320.389 143.602 320.22 143.166C320.107 142.87 319.861 142.646 319.555 142.557C318.801 142.338 317.312 142.143 315.95 140.909C315.183 140.216 312.247 138.363 312.247 138.363L312.231 138.359C312.166 138.361 311.86 138.455 310.524 139.582C309.833 140.164 308.657 138.76 308.657 138.76C308.657 138.76 308.436 138.943 308.272 139.283C308.14 139.553 308.042 139.922 308.118 140.376C308.225 141.018 307.881 142.21 307.608 143.015C307.441 143.503 307.302 143.85 307.302 143.85C307.302 143.85 307.222 144.254 308.664 144.434Z" fill="#233862"/>
<path d="M288.37 99.1642L278.092 111.346C271.546 109.653 264.754 107.615 261.509 103.635C254.536 95.0872 265.888 84.582 265.888 84.582C265.888 84.582 277.958 91.7555 288.37 99.1642Z" fill="#1E3D70"/>
<path d="M279.031 92.8035C279.031 92.8035 278.202 95.4154 276.853 99.3458C275.147 104.316 272.608 111.392 269.851 117.954C269.245 119.396 268.63 120.814 268.01 122.179C265.718 127.229 263.372 131.558 261.308 133.759C257.596 137.715 248.576 163.138 248.576 163.138L246.327 162.516C246.327 162.516 243.193 140.806 254.295 128.452C254.414 128.32 254.507 128.168 254.519 127.991C254.521 127.989 254.521 127.987 254.521 127.985C254.67 126.157 255.198 117.967 256.346 109.67C256.628 107.633 256.949 105.593 257.309 103.638C257.33 103.513 257.356 103.388 257.377 103.265C259.067 94.2216 260.684 90.1989 262.771 88.1768L278.121 92.5467L279.031 92.8035Z" fill="#2B478B"/>
<path d="M246.075 166.26H247.75C248.311 166.172 248.725 166.009 249.302 165.935C250.176 165.821 250.579 166.179 250.659 166.26C250.67 166.271 250.675 166.277 250.675 166.277H257.793C257.972 166.022 257.8 165.428 257.632 164.992C257.518 164.696 257.272 164.471 256.966 164.383C256.212 164.164 254.723 163.97 253.361 162.737C252.594 162.044 249.659 160.19 249.659 160.19L249.642 160.187C249.577 160.188 249.272 160.282 247.935 161.409C247.244 161.992 246.068 160.588 246.068 160.588C246.068 160.588 245.848 160.771 245.683 161.111C245.551 161.378 245.453 161.749 245.531 162.203C245.638 162.845 245.294 164.037 245.021 164.842C244.854 165.331 244.715 165.678 244.715 165.678C244.715 165.678 244.634 166.081 246.075 166.26Z" fill="#233862"/>
<path d="M249.367 63.2753C249.367 63.2753 246.799 69.5589 243.838 75.6743C241.347 80.8165 238.58 85.8394 236.825 86.9102C234.351 88.4223 227.535 92.6855 223.112 95.8653C223.112 95.8653 219.661 95.84 219.126 96.5002C218.59 97.1604 217.353 100.129 217.713 100.429C218.075 100.729 220.817 100.59 221.484 99.9061C222.065 99.311 223.36 98.8823 223.682 98.7828C223.702 98.7774 223.722 98.7702 223.742 98.7647C223.751 98.7629 223.756 98.7611 223.756 98.7611C229.13 97.1079 237.558 93.6641 240.108 91.9801C242.304 90.5295 247.175 84.5317 251.059 79.1941C251.06 79.1941 251.06 79.1941 251.06 79.1941C253.877 75.3252 256.174 71.8017 256.557 70.6134C259.073 62.834 251.836 60.7883 249.367 63.2753Z" fill="#FFB27D"/>
<path d="M262.799 38.6384C262.494 38.1935 262.186 37.801 261.879 37.4501C262.258 37.4573 262.671 37.4211 263.013 37.2801C263.914 36.9075 264.326 34.046 264.19 33.1959C264.055 32.3476 262.803 29.8931 261.258 29.6471C259.713 29.403 258.118 31.1177 258.118 31.1177C258.404 29.8805 261.016 29.166 261.016 29.166C255.635 30.159 255.908 33.7476 255.946 34.0786C251.018 32.3241 248.128 41.6012 248.128 41.6012L260.889 49.1201C260.889 49.1201 260.922 47.0708 262.141 47.2028C264.038 47.409 265.619 42.7479 262.799 38.6384Z" fill="#2C3A64"/>
<path d="M263.614 58.1039C260.686 59.4839 256.8 57.4961 256.822 57.4744C257.073 57.223 256.985 56.4724 256.755 55.4884C256.525 54.4629 255.981 53.0629 254.977 51.3898C254.767 51.0335 254.559 50.679 254.308 50.3027L254.642 50.1779L260.331 47.8989C260.331 47.8989 261.252 49.5503 262.214 51.057C263.03 52.3123 263.887 53.4409 264.263 53.3993C264.283 53.3776 268.047 55.9696 263.614 58.1039Z" fill="#FFB27D"/>
<path d="M260.329 48.4619C260.182 50.4895 259.493 54.1504 256.753 55.4889C256.523 54.4633 255.979 53.0634 254.975 51.3903L260.329 48.4619Z" fill="#ED975D"/>
<path d="M254.642 53.6998C254.642 53.6998 262.047 50.7805 260.159 46.1971C258.27 41.6137 257.954 38.15 253.146 39.8194C248.338 41.4889 248.144 43.6142 248.403 45.2981C248.662 46.9803 252.666 54.3401 254.642 53.6998Z" fill="#FFB27D"/>
<path d="M257.406 45.1516C260.825 44.6687 261.823 43.2868 261.823 43.2868C261.823 43.2868 258.674 42.3824 256.824 39.2985C256.824 39.2985 252.98 38.0017 250.131 40.1685C249.957 40.3946 249.832 40.6587 249.771 40.9716C249.118 40.7582 248.136 40.8125 247.57 42.6592C246.718 45.4302 249.746 48.458 249.746 48.458C250.48 48.25 249.652 45.7811 249.536 44.4625C249.451 43.493 249.974 42.2504 250.256 41.6608C250.617 42.131 254.226 46.6637 258.631 46.8446C258.631 46.8446 256.304 46.0379 254.186 44.4589C255.241 44.9762 256.361 45.2981 257.406 45.1516Z" fill="#2C3A64"/>
<path d="M277.714 67.5475C277.65 67.3269 277.583 67.0972 277.513 66.862C278.612 64.7602 279.153 62.8647 279.381 61.2621C279.884 57.8743 279.027 55.7834 279.027 55.7834C279.027 55.7834 273.89 53.0595 271.621 52.7122C271.612 52.7086 271.602 52.7049 271.593 52.7031C271.565 52.6995 271.535 52.6959 271.502 52.6941C269.212 52.3776 264.256 53.3905 264.256 53.3905C264.256 53.3905 265.213 55.9354 262.514 57.6338C259.817 59.3304 256.936 57.1997 256.936 57.1997C256.849 57.2576 256.757 57.3227 256.661 57.3896C256.661 57.3896 249.563 62.0724 248.925 63.1432C248.288 64.214 245.557 69.5118 245.557 69.5118C245.557 69.5118 246.423 73.9614 256.012 74.3321C256.8 76.244 257.402 78.1088 257.6 79.6643C258.361 85.7037 257.477 90.4662 258.365 93.9914C259.253 97.5167 275.252 95.5072 278.149 94.8289C281.047 94.1506 280.396 91.0576 280.618 88.0515C280.899 84.273 278.658 70.8792 277.714 67.5475Z" fill="#699DEE"/>
<path d="M279.381 61.2624C279.151 62.8722 278.607 64.775 277.498 66.8876C277.247 65.7788 276.223 61.7218 274.57 59.8823C274.572 59.8805 277.353 60.1319 279.381 61.2624Z" fill="#4A82D3"/>
<path d="M214.237 100.84C214.237 100.84 217.218 97.2279 217.86 96.801C218.502 96.3741 221.317 95.6253 221.478 95.7754C221.639 95.9256 221.646 96.1444 221.297 96.4519C220.948 96.7594 219.617 97.5372 219.806 97.624C219.996 97.7108 224.014 95.7121 224.593 96.385C225.171 97.0578 224.265 99.8343 222.717 101.165C221.168 102.497 216.549 103.065 216.258 103.249C213.794 104.826 214.237 100.84 214.237 100.84Z" fill="#ED975D"/>
<path d="M161.757 92.4975C161.757 92.4975 166.039 97.5783 171.493 95.453C171.493 95.453 172.666 92.6151 172.683 90.5241C172.685 90.2673 172.688 90.0177 172.692 89.7807C172.721 87.4257 172.8 86.1035 172.8 86.1035C172.8 86.1035 172.798 86.1035 172.795 86.1017C172.547 85.9986 164.458 82.6778 164.465 82.9527C164.604 89.3249 161.757 92.4975 161.757 92.4975Z" fill="#FFB27D"/>
<path d="M165.277 84.4744C166.057 85.9196 168.734 88.7485 172.692 89.7813C172.72 87.4263 172.8 86.1041 172.8 86.1041C172.8 86.1041 172.798 86.1041 172.795 86.1023C172.57 86.0426 165.046 84.0475 165.277 84.4744Z" fill="#ED975D"/>
<path d="M174.495 85.8601C174.495 85.8601 165.398 87.998 164.154 82.3131C162.91 76.6282 160.898 73.0758 166.652 71.4697C172.408 69.8635 174.014 71.7862 174.891 73.5823C175.768 75.3784 176.828 85.1565 174.495 85.8601Z" fill="#FFB27D"/>
<path d="M164.465 83.8627C164.34 83.9423 162.383 84.5428 158.676 77.1595C158.094 76.0001 157.698 73.4932 159.054 71.2774C160.411 69.0617 165.221 67.3199 169.216 66.5621C173.212 65.8042 174.171 68.0525 175.113 70.3116C176.101 72.6828 178.953 74.6363 178.953 74.6363C175.507 76.5608 171.358 73.8079 169.92 74.2601C168.482 74.7122 167.974 76.9786 167.867 77.7057C167.758 78.431 167.594 79.0351 165.785 78.3858C163.976 77.7365 164.967 80.9488 165.257 81.5619C165.255 81.5619 165.501 83.1971 164.465 83.8627Z" fill="#A9453D"/>
<path d="M141.034 225.811H135.526C134.372 225.811 133.088 224.639 132.767 222.496C132.446 220.349 130.072 219.18 129.559 217.424C129.045 215.668 131.677 213.197 131.677 213.197L132.116 212.624L132.574 212.027L136.937 213.067C136.937 213.067 137.043 214.12 137.112 215.46C137.159 216.428 137.185 217.547 137.13 218.529C137.002 220.872 137.778 223.391 139.829 223.847C141.884 224.301 141.034 225.811 141.034 225.811Z" fill="#2C3A64"/>
<path d="M179.377 225.864H164.778C164.639 225.835 164.532 225.804 164.469 225.772C163.494 225.269 163.8 221.427 163.917 220.241C163.939 220.022 163.955 219.891 163.955 219.891C163.955 219.891 169.089 215.664 169.796 218.9C169.818 219.002 169.845 219.101 169.872 219.199V219.201C170.764 222.23 174.747 223.605 177.047 223.988C178.804 224.283 179.26 225.338 179.377 225.864Z" fill="#2C3A64"/>
<path d="M176.434 141.441C176.434 141.441 175.654 151.168 174.737 162.86C173.491 178.744 171.993 198.253 171.845 201.949C171.588 208.366 170.561 218.633 170.561 218.633C170.561 218.633 168.124 221.071 163.246 220.043C163.246 220.043 158.899 205.389 157.656 189.883C157.636 189.628 157.618 189.372 157.599 189.116C156.444 173.331 154.646 140.091 154.646 140.091L176.434 141.441Z" fill="#EE9849"/>
<path d="M176.434 141.441C176.434 141.441 175.654 151.168 174.737 162.86L157.658 189.884C157.638 189.629 157.62 189.374 157.6 189.117C156.446 173.333 154.648 140.093 154.648 140.093L176.434 141.441Z" fill="#E58638"/>
<path d="M172.872 142.596C172.872 142.596 158.819 177.823 149.578 194.379C140.337 210.934 137.45 215.554 137.45 215.554C137.45 215.554 132.155 213.436 131.674 211.992C131.674 211.992 135.209 180.032 141.397 172.24C144.893 167.837 149.001 154.626 149.193 150.007C149.385 145.387 150.444 136.242 150.444 136.242L172.872 142.596Z" fill="#EE9849"/>
<path d="M140.697 136.729C140.697 136.729 140.334 141.128 140.066 141.805C139.8 142.479 138.022 144.574 137.818 144.545C137.612 144.514 137.489 144.35 137.594 143.925C137.698 143.498 138.31 142.181 138.116 142.215C137.923 142.25 135.888 145.959 135.079 145.75C134.269 145.54 133.477 142.903 133.96 141.04C134.441 139.177 137.713 136.252 137.838 135.952C138.896 133.405 140.697 136.729 140.697 136.729Z" fill="#ED975D"/>
<path d="M139.189 137.845C140.744 138.344 140.994 138.232 140.994 138.232C140.994 138.232 148.564 124.449 149.331 123.187C150.098 121.924 165.406 107.731 165.406 107.731L161.472 93.062C161.472 93.062 144.062 115.606 142.181 118.842C139.073 124.187 137.253 136.604 137.253 136.604C137.253 136.604 137.968 137.452 139.189 137.845Z" fill="#1E3D70"/>
<path d="M179.4 113.488C179.346 116.501 179.171 119.887 178.935 123.326C178.921 123.53 178.906 123.735 178.892 123.937C178.742 126.068 178.577 128.204 178.389 130.286C178.313 131.121 178.234 131.946 178.15 132.757L178.138 132.865C178.13 133.169 178.094 133.498 178.06 133.798C177.293 141.6 176.488 147.762 176.338 147.856C176.159 147.975 175.958 148.035 175.739 148.008C173.693 147.751 167.59 148.216 162.593 147.127C158.376 146.237 154.746 144.551 150.897 142.278C150.387 141.976 149.222 141.176 149.316 140.579C149.408 139.923 149.58 138.973 149.799 137.781C150.557 133.632 151.865 126.495 152.311 118.142C152.398 116.586 152.525 115.049 152.689 113.539C153.118 109.603 153.805 105.864 154.728 102.543C156.441 96.3736 158.959 91.651 162.117 89.8024C162.529 89.5709 164.751 90.9836 166.789 92.2931C168.672 93.5013 170.656 93.8341 172.585 93.6659L174.281 95.5434C176.336 97.9328 178.525 101.114 179.124 105.634C179.169 105.969 179.207 106.324 179.239 106.7C179.406 108.546 179.447 110.878 179.4 113.488Z" fill="#2A4E96"/>
<path d="M179.4 113.488C179.346 116.501 179.17 119.887 178.935 123.326C178.921 123.53 178.906 123.735 178.892 123.937C167.207 116.623 165.407 103.24 165.407 103.24C171.156 103.491 175.723 104.813 179.243 106.703C179.406 108.547 179.447 110.878 179.4 113.488Z" fill="#1E3D70"/>
<path d="M216.011 101.2C215.409 99.5698 214.472 99.6766 214.472 99.6766C214.472 99.6766 197.098 104.007 195.539 104.191C193.98 104.377 176.83 97.4952 176.83 97.4952C176.83 97.4952 170.08 94.4655 166.918 97.2311C164.17 99.635 164.045 102.679 164.688 105.237C165.455 108.284 168.032 110.534 171.149 110.932C178.145 111.824 192.106 113.501 195.031 113.094C201.542 112.188 216.299 103.67 216.299 103.67C216.299 103.67 216.483 102.48 216.011 101.2Z" fill="#2A4E96"/>
<path d="M387.329 133.045C387.329 133.045 389.742 135.282 389.272 136.872C388.802 138.462 386.622 139.522 386.329 141.464C386.036 143.407 384.857 144.467 383.797 144.467C382.737 144.467 378.745 144.467 378.745 144.467C378.745 144.467 377.965 143.1 379.848 142.687C381.733 142.275 382.442 139.992 382.325 137.872C382.207 135.752 382.502 132.927 382.502 132.927L386.505 131.985L387.329 133.045Z" fill="#2C3A64"/>
<path d="M357.246 144.201C357.001 144.324 356.14 144.409 354.959 144.465H343.535C343.573 144.125 343.839 142.913 345.707 142.613C347.818 142.269 351.474 141.043 352.289 138.344C352.316 138.257 352.34 138.169 352.36 138.08C353.007 135.195 357.716 138.963 357.716 138.963C357.716 138.963 357.73 139.079 357.75 139.276C357.861 140.334 358.139 143.756 357.246 144.201Z" fill="#2C3A64"/>
<path d="M346.267 67.0454C346.267 67.0454 346.981 75.9698 347.822 86.6975C348.965 101.271 350.34 119.17 350.476 122.561C350.711 128.449 351.653 137.869 351.653 137.869C351.653 137.869 353.889 140.106 358.366 139.164C358.366 139.164 362.354 125.718 363.494 111.492C363.512 111.258 363.53 111.023 363.546 110.788C364.606 96.3055 366.254 65.8101 366.254 65.8101L346.267 67.0454Z" fill="#35488B"/>
<path d="M346.267 67.0453C346.267 67.0453 346.981 75.9697 347.822 86.6974L363.492 111.49C363.51 111.257 363.528 111.021 363.544 110.786C364.604 96.3036 366.252 65.8081 366.252 65.8081L346.267 67.0453Z" fill="#2C3A64"/>
<path d="M349.533 68.1051C349.533 68.1051 362.426 100.426 370.904 115.614C379.382 130.802 382.032 135.041 382.032 135.041C382.032 135.041 386.889 133.099 387.33 131.775C387.33 131.775 384.089 102.451 378.411 95.305C375.202 91.2661 371.434 79.1457 371.259 74.906C371.082 70.6681 370.11 62.2773 370.11 62.2773L349.533 68.1051Z" fill="#35488B"/>
<path d="M309.764 50.5741C309.764 50.5741 306.268 49.7746 305.678 49.8144C305.09 49.8542 303.03 50.717 303.003 50.8834C302.976 51.0498 303.073 51.1855 303.428 51.2108C303.784 51.2343 304.954 51.0842 304.88 51.2253C304.806 51.3663 301.433 52.0301 301.397 52.7084C301.359 53.3867 303.207 54.6492 304.768 54.7342C306.329 54.8192 309.399 53.0051 309.663 52.9816C311.897 52.7862 309.764 50.5741 309.764 50.5741Z" fill="#FFB27D"/>
<path d="M308.268 51.4626C307.767 49.8655 307.885 49.6104 307.885 49.6104C307.885 49.6104 322.06 41.9449 323.359 41.1672C324.658 40.3894 339.307 24.7998 339.307 24.7998L354.313 28.9292C354.313 28.9292 331.092 46.6169 327.763 48.5234C322.265 51.6706 309.529 53.4522 309.529 53.4522C309.529 53.4522 308.661 52.7179 308.268 51.4626Z" fill="#E58638"/>
<path d="M343.853 17.2233C343.853 17.2233 338.593 26.4786 333.45 27.6869C333.45 27.6869 333.664 24.5776 334.917 22.4505C334.404 21.8464 333.955 21.2911 333.564 20.7937C332.269 19.1351 331.654 18.1204 331.654 18.1204L333.4 13.4285L334.585 10.2451C335.154 11.2779 335.78 12.1588 336.435 12.9112C339.803 16.7855 343.853 17.2233 343.853 17.2233Z" fill="#FFB27D"/>
<path d="M336.433 12.9109C336.433 12.9109 337.061 17.5486 333.563 20.7935C332.267 19.1348 331.652 18.1201 331.652 18.1201L333.398 13.4282C335.27 12.8585 336.433 12.9109 336.433 12.9109Z" fill="#ED975D"/>
<path d="M330.267 18.8032C330.267 18.8032 338.128 15.7392 336.144 10.8737C334.159 6.00816 333.839 2.3364 328.736 4.08727C323.634 5.83814 323.422 8.09003 323.69 9.87526C323.956 11.6587 328.172 19.4743 330.267 18.8032Z" fill="#FFB27D"/>
<path d="M370.872 64.7188C367.701 69.2768 343.994 75.3687 344.275 72.2124C344.381 71.0042 344.526 68.8753 344.271 65.9885C344.211 65.3121 344.128 64.5958 344.019 63.8379C343.417 59.6923 341.986 54.3601 338.796 48.1905C338.557 47.7274 338.307 47.2626 338.049 46.7905C336.735 44.4011 335.616 41.8761 334.762 39.4054C333.119 34.6592 332.457 30.1175 333.286 27.1493C333.289 27.1349 333.295 27.1222 333.299 27.1077C338.255 24.8161 340.174 15.9297 340.174 15.9297C340.174 15.9297 357.081 18.9648 366.55 41.4999C366.552 41.4999 373.63 60.7504 370.872 64.7188Z" fill="#EE9849"/>
<path d="M344.272 65.9888C344.212 65.3123 344.129 64.596 344.02 63.8382C343.418 59.6925 341.987 54.3603 338.796 48.1907C339.344 44.8698 340.101 42.1078 340.931 40.8652C344.302 35.8116 346.267 35.0229 346.267 35.0229C346.267 35.0229 351.322 56.3463 344.272 65.9888Z" fill="#E58638"/>
<path d="M317.622 60.915C317.622 60.915 312.944 61.161 312.221 61.4215C311.495 61.6819 309.218 63.4997 309.243 63.7186C309.269 63.9374 309.44 64.0731 309.894 63.9772C310.35 63.8796 311.767 63.2736 311.723 63.478C311.68 63.6824 307.682 65.7209 307.878 66.5855C308.073 67.4518 310.844 68.3743 312.836 67.9239C314.827 67.4717 318.032 64.0966 318.354 63.9754C321.089 62.9318 317.622 60.915 317.622 60.915Z" fill="#FFB27D"/>
<path d="M316.739 62.6895C315.802 61.1756 316.477 60.4846 316.477 60.4846C316.477 60.4846 330.924 49.1727 332.056 48.0296C333.188 46.8865 338.434 28.6905 338.434 28.6905C338.434 28.6905 340.239 21.3271 344.468 20.5149C348.142 19.8095 350.682 21.6273 352.344 23.758C354.324 26.2975 354.518 29.7992 352.876 32.5684C349.187 38.7833 341.746 51.1226 339.572 53.2297C334.735 57.9216 318.553 64.4765 318.553 64.4765C318.553 64.4765 317.475 63.8778 316.739 62.6895Z" fill="#EE9849"/>
<path d="M337.273 1.83588C337.327 1.72735 337.488 1.61159 337.879 1.49222C337.879 1.49222 337.513 1.36922 337.086 1.46328C336.866 0.92427 336.33 0.00723499 335.323 0C335.323 0 335.9 0.150126 336.113 0.727116C334.735 -0.146509 332.179 -0.399733 325.799 1.72374C317.392 4.52368 321.592 9.40549 322.865 9.79617C324.141 10.1869 326.487 7.67632 328.596 7.33266C330.705 6.989 331.848 9.92821 332.651 10.1724C333.456 10.4166 332.998 9.74734 333.841 9.0781C334.684 8.40887 335.167 9.98428 335.149 11.0912C335.131 12.1982 336.773 13.2473 336.773 13.2473C336.773 13.2473 336.773 13.2473 337.738 11.4801C338.702 9.71297 338.439 3.29915 337.519 2.14337C337.437 2.04388 337.356 1.94079 337.273 1.83588Z" fill="#2B478B"/>
<path d="M475.374 244H0.625852C0.282176 244 0 243.718 0 243.374V242.928C0 242.584 0.282176 242.302 0.625852 242.302H475.374C475.718 242.302 476 242.584 476 242.928V243.374C476 243.718 475.718 244 475.374 244Z" fill="#2E3552"/>
<path d="M204.369 225.625V235.141L181.844 225.625H204.369Z" fill="#4271BC"/>
<path d="M397.132 144.465H322.641V242.302H397.132V144.465Z" fill="#4A75CB"/>
<path d="M374.164 144.465H299.671V242.302H374.164V144.465Z" fill="#699DEE"/>
<path d="M397.132 144.465V159.096L374.164 144.465H397.132Z" fill="#4271BC"/>
</svg>
