<svg width="120" height="37" viewBox="0 0 120 37" fill="none" xmlns="http://www.w3.org/2000/svg">
<path d="M14.328 16.264C15.288 16.568 16.04 17.08 16.584 17.8C17.128 18.504 17.4 19.376 17.4 20.416C17.4 21.888 16.824 23.024 15.672 23.824C14.536 24.608 12.872 25 10.68 25H1.992V8.2H10.2C12.248 8.2 13.816 8.592 14.904 9.376C16.008 10.16 16.56 11.224 16.56 12.568C16.56 13.384 16.36 14.112 15.96 14.752C15.576 15.392 15.032 15.896 14.328 16.264ZM5.856 11.128V15.088H9.72C10.68 15.088 11.408 14.92 11.904 14.584C12.4 14.248 12.648 13.752 12.648 13.096C12.648 12.44 12.4 11.952 11.904 11.632C11.408 11.296 10.68 11.128 9.72 11.128H5.856ZM10.392 22.072C11.416 22.072 12.184 21.904 12.696 21.568C13.224 21.232 13.488 20.712 13.488 20.008C13.488 18.616 12.456 17.92 10.392 17.92H5.856V22.072H10.392ZM20.1796 7.192H23.9236V25H20.1796V7.192ZM40.5063 12.088V25H36.9543V23.464C36.4583 24.024 35.8663 24.456 35.1783 24.76C34.4903 25.048 33.7463 25.192 32.9463 25.192C31.2503 25.192 29.9063 24.704 28.9143 23.728C27.9223 22.752 27.4263 21.304 27.4263 19.384V12.088H31.1703V18.832C31.1703 20.912 32.0423 21.952 33.7863 21.952C34.6823 21.952 35.4023 21.664 35.9463 21.088C36.4903 20.496 36.7623 19.624 36.7623 18.472V12.088H40.5063ZM56.7229 18.592C56.7229 18.64 56.6989 18.976 56.6509 19.6H46.8829C47.0589 20.4 47.4749 21.032 48.1309 21.496C48.7869 21.96 49.6029 22.192 50.5789 22.192C51.2509 22.192 51.8429 22.096 52.3549 21.904C52.8829 21.696 53.3709 21.376 53.8189 20.944L55.8109 23.104C54.5949 24.496 52.8189 25.192 50.4829 25.192C49.0269 25.192 47.7389 24.912 46.6189 24.352C45.4989 23.776 44.6349 22.984 44.0269 21.976C43.4189 20.968 43.1149 19.824 43.1149 18.544C43.1149 17.28 43.4109 16.144 44.0029 15.136C44.6109 14.112 45.4349 13.32 46.4749 12.76C47.5309 12.184 48.7069 11.896 50.0029 11.896C51.2669 11.896 52.4109 12.168 53.4349 12.712C54.4589 13.256 55.2589 14.04 55.8349 15.064C56.4269 16.072 56.7229 17.248 56.7229 18.592ZM50.0269 14.728C49.1789 14.728 48.4669 14.968 47.8909 15.448C47.3149 15.928 46.9629 16.584 46.8349 17.416H53.1949C53.0669 16.6 52.7149 15.952 52.1389 15.472C51.5629 14.976 50.8589 14.728 50.0269 14.728ZM66.8515 8.2C68.3395 8.2 69.6275 8.448 70.7155 8.944C71.8195 9.44 72.6675 10.144 73.2595 11.056C73.8515 11.968 74.1475 13.048 74.1475 14.296C74.1475 15.528 73.8515 16.608 73.2595 17.536C72.6675 18.448 71.8195 19.152 70.7155 19.648C69.6275 20.128 68.3395 20.368 66.8515 20.368H63.4675V25H59.5795V8.2H66.8515ZM66.6355 17.2C67.8035 17.2 68.6915 16.952 69.2995 16.456C69.9075 15.944 70.2115 15.224 70.2115 14.296C70.2115 13.352 69.9075 12.632 69.2995 12.136C68.6915 11.624 67.8035 11.368 66.6355 11.368H63.4675V17.2H66.6355ZM80.3353 13.792C80.7833 13.168 81.3833 12.696 82.1353 12.376C82.9033 12.056 83.7833 11.896 84.7753 11.896V15.352C84.3593 15.32 84.0793 15.304 83.9353 15.304C82.8633 15.304 82.0233 15.608 81.4153 16.216C80.8073 16.808 80.5033 17.704 80.5033 18.904V25H76.7593V12.088H80.3353V13.792ZM87.1014 12.088H90.8454V25H87.1014V12.088ZM88.9734 10.288C88.2854 10.288 87.7254 10.088 87.2934 9.688C86.8614 9.288 86.6454 8.792 86.6454 8.2C86.6454 7.608 86.8614 7.112 87.2934 6.712C87.7254 6.312 88.2854 6.112 88.9734 6.112C89.6614 6.112 90.2214 6.304 90.6534 6.688C91.0854 7.072 91.3014 7.552 91.3014 8.128C91.3014 8.752 91.0854 9.272 90.6534 9.688C90.2214 10.088 89.6614 10.288 88.9734 10.288ZM102.268 11.896C103.868 11.896 105.156 12.376 106.132 13.336C107.124 14.296 107.62 15.72 107.62 17.608V25H103.876V18.184C103.876 17.16 103.652 16.4 103.204 15.904C102.756 15.392 102.108 15.136 101.26 15.136C100.316 15.136 99.5642 15.432 99.0042 16.024C98.4442 16.6 98.1642 17.464 98.1642 18.616V25H94.4202V12.088H97.9962V13.6C98.4922 13.056 99.1082 12.64 99.8442 12.352C100.58 12.048 101.388 11.896 102.268 11.896ZM119.442 24.376C119.074 24.648 118.618 24.856 118.074 25C117.546 25.128 116.986 25.192 116.394 25.192C114.858 25.192 113.666 24.8 112.818 24.016C111.986 23.232 111.57 22.08 111.57 20.56V15.256H109.578V12.376H111.57V9.232H115.314V12.376H118.53V15.256H115.314V20.512C115.314 21.056 115.45 21.48 115.722 21.784C116.01 22.072 116.41 22.216 116.922 22.216C117.514 22.216 118.018 22.056 118.434 21.736L119.442 24.376Z" fill="white"/>
<path d="M72.3602 27.3962C52.5384 44.7896 35.1943 34.6435 29 27.3962C48.7797 42.4903 76.098 23.8509 79.6207 21.2856C80.1121 20.9277 80.1405 20.8826 79.6207 21.2856C78.7748 21.9414 76.4769 23.7839 72.3602 27.3962Z" fill="#86B1F2"/>
</svg>
