<svg width="30" height="30" viewBox="0 0 30 30" fill="none" xmlns="http://www.w3.org/2000/svg">
<circle cx="15" cy="15" r="15" fill="white"/>
<path d="M18.48 10.904H13.12V14.088C13.344 13.7893 13.6747 13.5387 14.112 13.336C14.56 13.1333 15.0347 13.032 15.536 13.032C16.432 13.032 17.1573 13.224 17.712 13.608C18.2773 13.992 18.6773 14.4773 18.912 15.064C19.1573 15.6507 19.28 16.2693 19.28 16.92C19.28 17.7093 19.1253 18.4133 18.816 19.032C18.5173 19.64 18.064 20.12 17.456 20.472C16.8587 20.824 16.1227 21 15.248 21C14.0853 21 13.152 20.712 12.448 20.136C11.744 19.56 11.3227 18.7973 11.184 17.848H12.96C13.0773 18.3493 13.3387 18.7493 13.744 19.048C14.1493 19.336 14.656 19.48 15.264 19.48C16.0213 19.48 16.5867 19.2507 16.96 18.792C17.344 18.3333 17.536 17.7253 17.536 16.968C17.536 16.2 17.344 15.6133 16.96 15.208C16.576 14.792 16.0107 14.584 15.264 14.584C14.7413 14.584 14.2987 14.7173 13.936 14.984C13.584 15.24 13.328 15.592 13.168 16.04H11.44V9.304H18.48V10.904Z" fill="#F47458"/>
</svg>
