<svg width="375" height="350" viewBox="0 0 375 350" fill="none" xmlns="http://www.w3.org/2000/svg">
<path d="M362.77 89.5537C354.963 95.9119 343.871 102.968 334.736 106.006L348.308 108.567L292.247 174.8L180.512 207.019L48.2832 348.307L152.443 348.27L205.516 262.895L311.847 199.598L353.143 111.425L361.941 122.095C360.181 112.614 360.988 99.4738 362.77 89.5537Z" fill="#F7CC7F"/>
<path d="M30.4283 239.126C30.4283 239.126 24.3731 228.25 22.8987 225.938C21.4263 223.625 17.5864 214.438 17.4497 214.076C17.3131 213.713 20.0924 209.366 19.4727 209.218C18.8529 209.069 18.1658 211.511 17.5036 211.218C16.8415 210.926 14.9071 205.05 14.5299 205.342C13.8235 205.887 15.5731 208.986 15.1959 209.183C14.8186 209.378 13.6792 205.772 12.9401 205.878C12.2009 205.984 14.3451 209.183 14.1392 209.465C13.9332 209.748 11.7063 206.734 11.3021 207.376C11.0827 207.725 13.35 210.007 12.915 210.221C12.48 210.435 10.4648 208.961 10.2512 209.386C10.0375 209.81 12.1163 210.392 12.736 211.538C13.3577 212.683 14.4144 213.179 14.8552 215.298C15.294 217.42 15.9504 225.093 18.2023 228.923C20.4524 232.751 25.4028 241.227 25.4028 241.227L30.4283 239.126Z" fill="#F79C8D"/>
<path d="M28.7522 235.602C28.7522 235.602 35.4503 242.835 36.4473 245.751C37.4424 248.667 35.4772 252.836 32.7595 253.02C30.0417 253.203 23.998 240.18 23.998 240.18L28.7522 235.602Z" fill="#355389"/>
<path d="M60.3037 287.973C59.8167 287.564 59.2258 287.749 57.5339 286.966C57.2067 286.814 56.3444 286.573 55.9576 286.496C55.8844 286.481 55.8286 286.427 55.8094 286.355C55.2955 284.405 53.0416 275.388 52.7933 272.788C52.5411 270.129 50.8281 258.857 50.5683 257.143C50.551 257.025 50.4355 256.952 50.3219 256.983L45.4042 258.356C45.3041 258.385 45.2425 258.487 45.2656 258.589C45.5697 259.933 47.4598 268.368 48.0141 272.638C48.4568 276.042 53.517 286.961 53.619 287.659C53.619 287.665 53.6209 287.672 53.6209 287.678C53.6517 287.888 53.8307 288.045 54.0424 288.045C55.2916 288.045 59.2932 288.043 59.5222 288.045C59.7339 288.046 60.4576 288.1 60.3037 287.973Z" fill="#F48C7F"/>
<path d="M49.3568 252.278C46.741 244.325 43.8135 244.664 43.8135 244.664L46.077 261.384C47.6918 260.94 49.7975 259.957 51.4105 259.5C50.8754 256.983 50.0015 254.235 49.3568 252.278Z" fill="#13375B"/>
<path d="M48.5438 231.598C47.7431 226.369 43.0198 222.608 38.0809 225.146C36.9703 225.717 35.4671 226.876 34.6991 227.861C32.6242 230.528 32.0949 233.822 29.9526 236.412C30.7399 237.01 31.6907 237.637 32.8244 238.24L34.1582 236.458L33.6982 238.682C37.0146 240.271 41.6975 241.584 48.1011 241.546C48.9076 237.912 48.9711 234.387 48.5438 231.598Z" fill="#F7CC7F"/>
<path d="M50.0836 347.532C49.3291 346.975 48.7209 346.609 46.3131 345.438C46.1552 345.361 45.5836 344.997 45.3776 344.871C44.8541 344.551 44.3306 344.046 43.8782 343.54C43.4471 343.058 43.2412 341.512 43.143 340.279C43.3913 337.526 47.3717 293.371 48.2128 288.592C49.0789 283.658 47.7585 276.133 47.7585 276.133L44.6847 274.972L38.8489 295.236L39.3089 310.66C39.3089 310.66 37.9365 315.105 37.7633 317.763C37.5901 320.42 39.7477 341.986 39.7477 341.986C39.7477 342.758 39.7169 343.456 39.6323 343.891C39.4744 344.698 38.5929 346.358 38.9971 347.118C39.4013 347.878 39.8632 348.067 39.8632 348.067L50.3493 348.236C50.9209 348.242 50.5437 347.874 50.0836 347.532Z" fill="#F48C7F"/>
<path d="M34.1699 274.547C34.1699 274.547 30.5283 280.051 29.6621 284.604C28.796 289.159 30.2992 303.156 28.6305 309.125C27.7277 312.355 24.3055 317.346 23.7859 321.521C23.2662 325.696 21.455 337.745 21.455 337.745C21.1817 339.01 20.7525 340.574 20.1962 341.303C19.8555 341.749 19.2338 342.312 18.8239 343.116C18.1887 344.368 18.539 346.232 19.0086 347.26C19.2492 347.787 18.9913 347.787 19.5399 347.956C21.1644 348.46 22.8909 347.613 23.5838 346.051C23.9706 345.179 24.3094 344.015 24.3768 342.549C24.4499 340.995 24.6924 339.76 24.9503 338.846L36.5893 310.241L45.0158 285.555L47.1735 272.84L34.1699 274.547Z" fill="#F79C8D"/>
<path d="M23.8999 345.228C21.3804 345.689 19.7039 344.209 18.832 343.101C18.191 344.356 17.8792 346.229 18.3508 347.258C18.7646 348.167 19.9772 348.14 20.9319 348.176C21.9405 348.215 22.7219 347.652 23.2224 346.769C23.4572 346.358 23.6978 345.845 23.8999 345.228Z" fill="#86B1F2"/>
<path d="M45.3785 344.869C42.6049 345.584 40.555 345.098 39.4098 344.633C39.1134 345.474 38.7227 346.531 38.9305 347.14C39.1846 347.887 39.5484 348.055 39.8679 348.062C42.4009 348.13 49.1452 348.22 51.0776 348.245C51.3471 348.249 51.4953 347.933 51.3221 347.725C50.8409 347.15 45.5844 344.996 45.3785 344.869Z" fill="#86B1F2"/>
<path d="M36.5317 310.296C36.7492 310.311 36.9686 310.324 37.1881 310.338C37.1996 310.338 37.2112 310.34 37.2227 310.34C37.4383 310.353 37.6558 310.365 37.8733 310.376C37.8868 310.376 37.9002 310.378 37.9137 310.378C38.1312 310.39 38.3506 310.4 38.57 310.409C38.5816 310.409 38.5931 310.409 38.6028 310.411C38.826 310.421 39.0493 310.429 39.2726 310.436C41.7574 310.517 44.8274 310.486 46.7983 310.151C47.8031 300.078 48.1765 290.885 48.5479 288.851C49.4487 283.916 47.7626 276.129 47.7626 276.129L46.9581 275.984L47.4682 273.099L33.9449 274.808C33.9449 274.808 30.1589 280.312 29.2562 284.865C28.3554 289.42 29.9183 303.417 28.1841 309.385C28.1822 309.387 32.0432 309.991 36.5317 310.296Z" fill="#F7CC7F"/>
<path d="M37.1181 243.234C37.1181 243.234 32.2966 242.925 30.3911 245.014C28.4837 247.1 34.6217 263.614 34.9682 266.271C35.3146 268.929 33.2012 275.993 33.2012 275.993C33.2012 275.993 44.5265 278.282 47.762 276.13C47.762 276.13 48.1084 257.024 47.762 255.127C47.4155 253.229 44.5246 245.511 43.8316 244.752C43.1368 243.994 37.1181 243.234 37.1181 243.234Z" fill="#355389"/>
<path d="M38.7224 236.766C38.7224 236.766 38.6973 236.908 38.6531 237.151C38.4375 238.316 37.6099 242.177 37.0517 243.238C36.3761 244.52 39.3652 248.612 42.2427 248.113C43.0992 247.964 41.519 244.354 41.5941 243.971C41.7404 243.238 41.9367 242.241 42.1388 241.217C42.2523 240.638 42.3678 240.054 42.4756 239.502C42.7836 237.938 43.0338 236.658 43.0338 236.658L38.7224 236.766Z" fill="#F7A491"/>
<path d="M38.6524 237.151C38.6967 236.908 38.7217 236.766 38.7217 236.766L43.0331 236.658C43.0331 236.658 42.7829 237.936 42.475 239.502C42.3672 240.05 42.2536 240.632 42.14 241.207C41.4741 241.109 40.7792 240.783 40.0825 240.171C39.3222 239.502 38.8237 238.7 38.5234 237.842C38.5754 237.568 38.6197 237.331 38.6524 237.151Z" fill="#F47458"/>
<path d="M41.6247 226.925C41.6247 226.925 39.5922 226.689 38.3199 228.344C37.0457 229.999 35.6734 235.115 38.8377 237.896C42.002 240.677 45.1278 237.529 45.5916 234.191C46.0536 230.851 46.2345 226.805 41.6247 226.925Z" fill="#F7A491"/>
<path d="M46.5268 234.142C46.1495 234.879 45.5144 235.288 45.1102 235.054C44.706 234.821 44.6848 234.034 45.062 233.296C45.4393 232.559 46.0745 232.15 46.4787 232.383C46.8829 232.617 46.904 233.406 46.5268 234.142Z" fill="#F7A491"/>
<path d="M41.8516 226.379C41.8516 226.379 39.1377 231.245 37.1957 231.468C35.2536 231.694 34.9995 234.278 34.9995 234.278C34.9995 234.278 35.6943 228.321 37.6172 227.173C39.5381 226.024 41.8516 226.379 41.8516 226.379Z" fill="#F7CC7F"/>
<path d="M37.704 232.691C37.8618 233.555 37.5442 234.348 36.9937 234.461C36.4433 234.575 35.8697 233.966 35.7119 233.102C35.554 232.238 35.8716 231.445 36.4221 231.332C36.9726 231.218 37.5462 231.827 37.704 232.691Z" fill="#F7A491"/>
<path d="M40.096 235.829L43.0332 236.408C43.0332 236.408 42.7464 237.513 41.4472 237.295C39.8631 237.031 40.096 235.829 40.096 235.829Z" fill="white"/>
<path d="M282.125 348.595L283.33 348.366L278.099 320.713L276.894 320.941L282.125 348.595Z" fill="#3C8F7C"/>
<path d="M226.38 348.73H224.93L230.331 320.717L231.534 320.947L226.38 348.73Z" fill="#3C8F7C"/>
<path d="M268.675 348.73H267.226L272.627 320.717L273.83 320.947L268.675 348.73Z" fill="#3C8F7C"/>
<path d="M239.581 348.73L240.757 348.745L235.58 320.842L234.377 321.072L239.581 348.73Z" fill="#184655"/>
<path d="M260.428 260.006C266.859 260.697 275.181 261.424 283.537 275.631C292.668 291.157 287.862 314.349 280.653 320.794C273.445 327.239 249.907 335.196 230.119 323.284C230.119 323.284 218.17 316.063 224.302 304.082C233.739 285.644 232.405 281.798 236.625 274.572C240.846 267.346 246.778 258.543 260.428 260.006Z" fill="#F47458"/>
<path d="M283.536 275.631C277.833 265.934 272.146 262.519 267.066 261.105C269.031 263.144 271.023 265.765 273.017 269.155C282.148 284.681 277.342 307.873 270.134 314.318C263.742 320.034 244.508 326.936 226.435 320.117C228.292 322.176 230.119 323.282 230.119 323.282C249.907 335.194 273.445 327.237 280.653 320.792C287.861 314.349 292.667 291.157 283.536 275.631Z" fill="#B75742"/>
<path d="M239.781 283.605L238.127 288.575L243.165 286.588L239.781 283.605Z" fill="#F79C8D"/>
<path d="M244.973 268.819C244.639 268.833 243.717 269.141 242.371 271.679C240.652 274.923 238.141 284.72 238.141 284.72L245.638 287.508L246.6 285.464L248.186 269.722C248.188 269.722 245.066 268.815 244.973 268.819Z" fill="#6394DB"/>
<path d="M254.885 267.408C252.741 267.41 247.437 268.034 244.975 268.821C244.975 268.821 243.166 284.344 246.603 296.138C247.373 298.778 245.966 307.084 245.966 307.084L268.182 306.791C268.182 306.791 265.55 286.714 266.542 283.47C267.533 280.226 267.556 268.925 267.556 268.925C267.556 268.925 267.404 268.902 262.565 268.067C260.309 267.678 257.174 267.406 254.885 267.408Z" fill="#86B1F2"/>
<path d="M257.473 335.894C257.473 335.894 256.983 341.557 256.078 343.125C255.175 344.693 256.126 347.36 256.172 347.727C256.22 348.093 258.074 348.616 261.023 348.301C263.971 347.987 263.923 347.308 263.687 346.211C263.448 345.114 261.879 343.702 261.785 342.655C261.691 341.609 262.688 337.845 262.688 337.845L257.473 335.894Z" fill="#F7A491"/>
<path d="M248.473 302.41C248.473 302.41 233.138 301.559 229.714 303.631C226.29 305.702 230.334 309.954 230.334 309.954C230.334 309.954 242.818 315.375 263.719 316.578C268.667 316.864 269.094 303.692 268.169 302.603C267.243 301.511 248.473 302.41 248.473 302.41Z" fill="#E5B05C"/>
<path d="M261.391 348.743C264.429 348.421 264.051 346.93 263.807 345.8C263.653 345.092 262.783 344.257 262.263 343.468C261.992 343.684 261.551 344.066 260.233 344.454C258.864 344.857 256.986 344.058 255.79 343.557C255.365 345.14 255.344 347.161 255.384 347.468C255.432 347.846 258.356 349.065 261.391 348.743Z" fill="#F47458"/>
<path d="M259.716 313.363C259.104 317.993 256.07 341.039 256.07 341.039L263.109 341.91C263.109 341.91 271.765 311.83 271.32 307.229C270.875 302.627 267.636 302.24 267.636 302.24C267.636 302.24 261.338 301.11 259.716 313.363Z" fill="#F7CC7F"/>
<path d="M267.798 270.651C265.721 269.874 264.705 288.561 264.424 296.254C260.745 296.607 254.334 296.256 252.738 296.136C251.988 296.08 250.257 295.448 249.511 295.349C248.745 295.249 248.052 295.197 247.676 295.263C247.538 295.286 243.704 296.852 243.376 297.195C242.97 297.621 241.869 298.695 242.056 299.16C242.241 299.625 244.171 297.866 244.171 297.866L245.114 297.338C243.94 298.483 241.702 299.991 242.025 300.539C242.339 301.075 244.36 299.544 245.798 298.5C244.564 299.613 243.03 301.607 243.382 301.918C243.7 302.197 245.444 299.891 247.309 299.226C248 298.979 248.689 299.661 249.232 299.744C249.632 299.804 250.248 299.933 250.64 299.823L252.659 299.253C253.347 299.314 253.364 299.721 254.059 299.868C254.865 300.039 256.188 300.219 257.213 300.469C263.126 301.912 265.097 302.581 266.908 302.581C272.388 302.575 272.708 272.489 267.798 270.651Z" fill="#F7A491"/>
<path d="M271.739 288.195C272.127 280.315 272.072 270.605 267.649 268.949C265.903 268.295 262.827 272.225 263.379 288.355C265.741 288.55 269.208 288.706 271.739 288.195Z" fill="#86B1F2"/>
<path d="M236.89 340.74C236.89 340.74 237.504 342.707 236.405 344.007C235.306 345.307 230.734 346.584 230.136 347.287C229.535 347.991 229.581 348.591 229.581 348.591L242.408 348.238L242.267 344.37L241.676 341.591L236.89 340.74Z" fill="#F7A491"/>
<path d="M235.607 344.655C235.607 344.655 238.903 345.985 240.494 345.198C242.086 344.41 242.038 344.192 242.498 344.487C242.958 344.78 243.124 348.733 243.124 348.733L228.701 348.83C227.698 348.806 227.19 348.068 228.006 347.437C228.565 347.003 229.211 346.714 229.579 346.504C230.707 345.854 235.607 344.655 235.607 344.655Z" fill="#F47458"/>
<path d="M237.377 306.039C236.386 303.956 234.132 301.243 230.165 302.878C226.381 304.436 225.367 308.264 226.56 312.185C227.753 316.106 235.612 339.155 235.886 342.323L242.16 342.366C242.16 342.366 241.021 324.115 240.74 319.704C240.47 315.458 239.092 309.643 237.377 306.039Z" fill="#F7CC7F"/>
<path d="M227.191 284.811H248.165C248.72 284.811 249.22 285.146 249.43 285.661L255.887 301.444H267.451C267.775 301.444 268.037 301.706 268.037 302.03C268.037 302.354 267.775 302.616 267.451 302.616H234.54C233.635 302.616 232.816 302.084 232.444 301.257L225.94 286.743C225.536 285.835 226.198 284.811 227.191 284.811Z" fill="#355389"/>
<path d="M238.485 293.999C238.627 294.709 239.243 295.181 239.863 295.058C240.482 294.934 240.869 294.257 240.729 293.55C240.586 292.84 239.971 292.367 239.351 292.491C238.729 292.614 238.342 293.291 238.485 293.999Z" fill="white"/>
<path d="M257.434 260.755L258.46 267.532C258.46 267.532 254.712 275.601 252.474 274.9C250.597 274.314 251.752 267.173 251.752 267.173C251.752 267.173 252.776 263.339 252.468 261.421C252.164 259.502 257.434 260.755 257.434 260.755Z" fill="#F7A491"/>
<path opacity="0.2" d="M252.469 261.42C252.163 259.502 257.433 260.753 257.433 260.753L257.517 261.314C257.363 261.69 257.175 262.012 256.946 262.259C255.768 263.528 253.928 264.292 252.336 264.35C252.496 263.316 252.594 262.207 252.469 261.42Z" fill="#F47458"/>
<path d="M258.3 251.167C258.448 251.113 259.493 258.885 257.51 261.024C255.526 263.162 251.661 263.862 250.275 262.179C248.741 260.316 248.818 251.962 251.904 249.761C254.987 247.561 258.3 251.167 258.3 251.167Z" fill="#F7A491"/>
<path d="M253.077 245.603C255.462 246.091 257.006 247.549 257.572 248.171C258.653 248.299 260.126 248.898 261.645 251.419C263.514 254.518 262.133 257.951 259.958 259.636C257.783 261.32 257.814 263.266 257.814 263.266L257.47 262.259C257.216 261.497 257.112 260.687 257.196 259.889C257.246 259.409 257.35 258.89 257.549 258.464C258.072 257.339 256.425 256.591 255.963 255.656C255.607 254.935 255.589 253.286 255.029 252.096L254.359 251.186C254.359 251.186 252.816 249.982 251.307 250.322C249.801 250.661 250.019 244.978 253.077 245.603Z" fill="#F7CC7F"/>
<path d="M256.066 257.039C256.05 257.987 256.48 258.763 257.026 258.772C257.573 258.782 258.029 258.02 258.045 257.071C258.06 256.122 257.631 255.347 257.084 255.337C256.537 255.328 256.081 256.09 256.066 257.039Z" fill="#F7A491"/>
<path d="M253.387 259.667L250.398 259.513C250.398 259.513 250.408 260.654 251.72 260.76C253.322 260.889 253.387 259.667 253.387 259.667Z" fill="white"/>
<path d="M312.954 221.887C313.281 223.229 313.869 225.352 313.869 225.352C313.822 225.937 313.649 228.365 313.445 231.34L317.81 229.589C317.81 229.589 317.759 224.739 317.953 224.442C318.118 224.191 318.394 224.504 319.733 222.585C320.12 222.032 320.191 221.042 320.191 221.042C320.191 221.042 320.27 219.824 319.999 219.712C319.726 219.598 319.412 219.779 319.314 219.991C319.216 220.202 319.241 220.691 319.14 220.902C319.042 221.112 318.411 221.366 318.143 221.353C317.878 221.339 318.176 217.75 318.176 217.75C318.176 217.75 318.324 216.732 318.399 216.399C318.463 216.115 318.721 215.282 318.721 215.282C318.721 215.282 319.023 214.075 318.65 213.982C318.428 213.928 317.866 214.91 317.481 215.951C317.066 217.074 316.831 218.263 316.711 218.246C316.432 218.209 316.581 216.24 316.581 216.24C316.581 216.24 316.858 215.338 316.852 214.914C317.114 214.393 317.289 213.425 316.827 213.346C316.742 213.33 316.132 214.559 316.132 214.559C316.132 214.559 315.893 215.425 315.753 215.828C315.507 216.541 315.47 217.668 315.341 218.163C315.235 218.576 315.137 218.406 315.095 218.423C315.06 218.437 315.12 217.868 315.189 217.083C315.224 216.688 315.177 216.235 315.289 215.785C315.391 215.369 315.449 214.775 315.476 214.414C315.551 213.396 314.912 213.5 314.69 214.432C314.606 214.786 314.517 215.172 314.429 215.565C314.084 217.091 314.096 218.562 313.93 218.574C313.717 218.589 313.857 215.913 313.857 215.913C313.857 215.913 313.53 214.432 313.205 215.807C312.827 217.401 312.868 218.703 312.872 218.761C312.908 219.152 312.627 220.545 312.954 221.887Z" fill="#F8A492"/>
<path d="M359.298 218.35C358.972 219.692 358.383 221.815 358.383 221.815C358.429 222.4 358.603 224.828 358.807 227.803L354.441 226.052C354.441 226.052 354.493 221.202 354.299 220.905C354.133 220.655 353.858 220.967 352.519 219.048C352.132 218.495 352.06 217.505 352.06 217.505C352.06 217.505 351.982 216.287 352.253 216.175C352.526 216.061 352.84 216.242 352.938 216.454C353.036 216.664 353.011 217.154 353.111 217.365C353.21 217.575 353.841 217.829 354.108 217.816C354.374 217.802 354.076 214.213 354.076 214.213C354.076 214.213 353.927 213.195 353.852 212.862C353.789 212.578 353.531 211.745 353.531 211.745C353.531 211.745 353.229 210.538 353.602 210.445C353.824 210.391 354.386 211.373 354.771 212.414C355.186 213.536 355.421 214.726 355.54 214.709C355.819 214.672 355.671 212.703 355.671 212.703C355.671 212.703 355.394 211.801 355.4 211.377C355.138 210.856 354.963 209.888 355.425 209.809C355.51 209.793 356.12 211.022 356.12 211.022C356.12 211.022 356.358 211.888 356.499 212.291C356.745 213.004 356.782 214.13 356.911 214.626C357.017 215.039 357.115 214.869 357.157 214.886C357.192 214.9 357.132 214.331 357.063 213.546C357.028 213.151 357.074 212.698 356.963 212.248C356.861 211.832 356.803 211.238 356.776 210.877C356.701 209.859 357.34 209.963 357.561 210.894C357.646 211.249 357.735 211.637 357.823 212.028C358.168 213.554 358.156 215.025 358.322 215.037C358.535 215.052 358.395 212.376 358.395 212.376C358.395 212.376 358.722 210.894 359.047 212.269C359.425 213.864 359.384 215.166 359.38 215.224C359.342 215.613 359.623 217.006 359.298 218.35Z" fill="#F8A492"/>
<path d="M347.354 332.454C347.354 332.454 349.775 335.461 350.378 335.831C350.98 336.201 350.108 340.571 348.466 340.856C347.541 341.018 347.027 339.996 347.027 339.996L347.292 338.737L343.833 335.167L347.354 332.454Z" fill="#F7A491"/>
<path d="M334.88 333.198C334.88 333.198 336.897 336.49 337.45 336.935C338 337.379 336.578 341.602 334.913 341.675C333.973 341.718 333.594 340.638 333.594 340.638L334.018 339.423L331.042 335.439L334.88 333.198Z" fill="#F7A491"/>
<path d="M337.33 336.805C337.33 336.805 336.171 338.286 335.538 338.874C334.722 339.636 333.676 340.379 333.676 340.379C333.676 340.379 332.493 342.531 332.169 343.283C331.449 344.955 330.639 346.82 330.757 347.755C330.793 348.056 331.469 348.374 332.029 348.2C334.367 347.479 340.346 342 341.102 340.529C341.972 338.836 337.33 336.805 337.33 336.805Z" fill="#13375B"/>
<path d="M320.263 286.656C320.48 286.047 320.688 285.484 320.89 284.954C323.377 285.497 326.187 286.095 329.076 286.712L329.428 297.325C329.426 296.505 327.255 314.253 327.255 314.253C327.255 314.253 332.872 326.709 336.712 333.97C335.135 335.941 334.396 336.575 332.113 337.919C326.151 330.759 318.35 317.655 318.024 315.476C317.838 314.222 317.67 293.963 320.263 286.656Z" fill="#3C8F7C"/>
<path d="M342.461 289.725C341.701 297.994 340.011 313.804 340.153 315.077C340.577 316.662 348.093 331.291 349.446 333.421C348.372 335.04 346.707 336.793 344.921 337.277C344.568 337.374 332.165 319.688 331.488 318.284C330.724 316.697 329.45 308.042 329.426 297.325L329.074 286.713C333.89 287.743 338.317 288.751 342.461 289.725Z" fill="#50BFA5"/>
<path d="M326.649 252.029L332.317 252.808C332.317 252.808 336.852 252.891 337.414 252.891C337.976 252.891 341.546 273.635 342.576 281.43C343.606 289.227 342.809 290.606 342.809 290.606C342.809 290.606 335.624 292.226 330.306 291.753C324.778 291.262 318.557 288.273 318.557 288.273C318.557 288.273 323.282 273.292 324.22 268.614C325.155 263.937 326.649 252.029 326.649 252.029Z" fill="#355389"/>
<path d="M312.906 226.935C312.906 226.935 312.543 242.381 313.124 243.561C313.969 245.279 323.487 257.465 323.487 257.465C323.487 257.465 318.94 276.528 317.029 283.11C316.837 283.773 315.984 288.055 315.984 288.473C315.984 289.399 320.007 290.573 320.484 290.504C320.911 290.442 324.42 272.309 326.661 263.436C327.419 260.429 328.722 257.588 330.504 255.051L332.062 252.833L320.105 240.826C320.105 240.826 318.631 227.462 318.631 226.353C318.632 226.064 313.488 225.846 312.906 226.935Z" fill="#86B1F2"/>
<path d="M337.217 252.892L352.126 237.671C352.126 237.671 354.203 223.277 354.351 222.735C354.496 222.203 358.199 221.915 359.691 221.769C360.17 221.722 359.44 237.098 358.726 239.676C357.883 242.722 346.614 256.595 346.614 256.595C346.614 256.595 344.595 264.11 345.08 269.622C345.888 278.776 348.065 291.369 347.676 291.765C345.253 293.294 335.954 293.458 335.365 292.507C328.865 282.022 337.217 252.892 337.217 252.892Z" fill="#86B1F2"/>
<path d="M350.24 335.719C350.24 335.719 349.28 337.335 348.727 338.003C348.015 338.861 347.072 339.732 347.072 339.732C347.072 339.732 346.173 342.02 345.948 342.806C345.447 344.557 344.88 346.671 345.116 347.585C345.192 347.878 345.836 348.439 346.368 348.092C348.417 346.754 353.897 340.488 354.457 338.934C355.104 337.139 350.24 335.719 350.24 335.719Z" fill="#13375B"/>
<path d="M332.734 233.061C333.367 233.084 334.003 233.078 334.636 233.022C335.35 232.959 336.262 232.912 336.786 233.024C337.889 233.258 339.638 234.041 340.222 235.489C340.949 237.292 343.549 237.024 340.468 243.866C336.98 251.611 332.906 249.075 332.85 248.901C332.794 248.726 330.834 242.341 330.834 242.341C330.834 242.341 328.396 244.763 328.436 244.655C328.477 244.551 325.118 232.785 332.734 233.061Z" fill="#0E2E35"/>
<path d="M332.393 249.996L331.987 253.026C331.987 253.026 331.077 257.392 332.247 258.233C333.417 259.074 337.227 252.9 337.227 252.9L336.824 245.223L332.393 249.996Z" fill="#F7A491"/>
<path d="M336.954 247.713C335.987 250.332 333.683 251.942 332.047 252.565L332.392 249.996L336.823 245.223L336.954 247.713Z" fill="#F47458"/>
<path d="M335.501 236.542C333.322 235.288 330.535 236.372 329.715 238.721C329.359 239.743 328.967 241.037 328.664 242.477C327.937 245.941 329.078 249.665 330.649 249.966C332.219 250.266 336.991 248.845 338.092 243.941C338.771 240.912 337.788 237.855 335.501 236.542Z" fill="#F7A491"/>
<path d="M336.861 244.109C336.714 244.877 337.101 245.594 337.725 245.714C338.348 245.833 338.974 245.309 339.12 244.541C339.266 243.773 338.879 243.056 338.256 242.936C337.632 242.817 337.007 243.341 336.861 244.109Z" fill="#F7A491"/>
<path d="M338.255 242.936C338.255 242.936 336.308 242.707 336.079 241.308C335.85 239.91 334.419 236.539 331.026 236.429C327.635 236.319 334.612 234.931 334.853 235.023C335.093 235.114 337.986 236.184 337.986 236.184C337.986 236.184 339.52 238.857 339.524 239.091C339.528 239.322 339.343 241.76 339.343 241.76L338.255 242.936Z" fill="#0E2E35"/>
<path d="M333.192 246.494L329.716 245.889C329.716 245.889 329.564 247.229 331.085 247.539C332.94 247.917 333.192 246.494 333.192 246.494Z" fill="white"/>
<path d="M157.51 260.668C157.641 261.121 157.716 261.269 157.884 261.574C158.958 263.533 161.452 266.332 161.452 266.332L163.381 261.977C163.381 261.977 163.067 260.61 162.52 258.654C160.659 259.142 158.885 259.426 157.51 260.668Z" fill="#F8A492"/>
<path d="M168.572 256.892C168.572 256.892 157.813 261.533 157.464 261.445C157.241 261.387 153.051 254.361 153.006 247.754C152.985 244.703 156.15 241.032 159.678 241.759C161.454 242.125 161.427 242.619 164.055 246.447C166.684 250.273 168.572 256.892 168.572 256.892Z" fill="#13375B"/>
<path d="M177.756 340.123C177.756 340.123 177.5 344.356 177.5 344.365C177.406 344.903 177.037 346.23 177.037 346.72C177.037 348.556 185.737 345.162 183.787 344.348C183.61 344.275 182.686 343.717 182.628 343.092C182.54 342.13 182.312 340.182 182.312 340.182L177.756 340.123Z" fill="#F7A491"/>
<path d="M183.765 344.331C183.765 344.331 181.722 344.892 180.675 345.033C179.628 345.173 178.25 343.991 177.509 344.309C176.695 344.66 176.726 347.825 176.726 347.825C176.726 347.825 187.679 348.726 190.759 347.794C191.981 347.424 187.941 345.638 183.765 344.331Z" fill="#DD513A"/>
<path d="M159.958 340.123C159.958 340.123 159.702 344.356 159.702 344.365C159.607 344.903 159.238 346.23 159.238 346.72C159.238 348.556 167.938 345.162 165.988 344.348C165.811 344.275 164.612 343.301 164.554 342.676C164.465 341.714 164.512 340.182 164.512 340.182L159.958 340.123Z" fill="#F7A491"/>
<path d="M165.966 344.331C165.966 344.331 163.923 344.892 162.876 345.033C161.829 345.173 160.451 343.991 159.71 344.31C158.896 344.66 158.863 347.825 158.863 347.825C158.863 347.825 169.867 348.874 172.962 347.794C174.165 347.374 170.142 345.638 165.966 344.331Z" fill="#DD513A"/>
<path d="M162.617 263.015L170.279 252.259C170.312 252.165 170.381 251.972 170.487 251.679C170.874 250.612 171.677 248.391 172.375 246.181L172.383 246.158C172.602 245.386 173.068 244.038 173.519 242.735C174.019 241.286 174.641 239.489 174.662 239.182C174.643 239.13 174.606 239.036 174.558 238.911C174.277 238.18 173.898 236.44 173.763 235.682C173.678 235.2 173.592 234.03 174.163 234.03C175.062 234.03 174.633 235.2 175.049 235.929C175.201 235.441 175.509 234.473 175.672 233.491L175.822 231.204C175.851 231.033 175.668 229.77 176.298 229.77L176.329 229.771C176.895 229.814 176.883 231.154 177.118 233.422C177.193 233.162 177.266 232.845 177.324 232.556C177.318 232.402 177.43 231.719 177.516 231.359C177.403 230.726 177.468 229.729 178.14 229.824C178.477 229.872 178.45 231.262 178.45 231.262C178.446 231.453 178.427 232.925 178.436 233.214C178.506 232.72 178.775 230.616 179.302 230.616C179.739 230.616 179.774 231.183 179.766 231.631C179.76 231.897 179.487 234.176 179.472 234.442C179.678 234.097 179.922 232.086 180.126 232.086C180.979 232.086 180.671 234.944 180.357 235.688C180.328 235.763 180.296 235.914 180.261 236.087C180.155 236.596 179.976 237.449 179.53 238.214C178.994 239.132 178.257 240.59 178.144 240.814C178.061 241.269 177.805 242.908 177.482 244.968C177.343 245.849 177.193 246.817 177.035 247.818L177.027 247.816C176.998 248.032 176.839 248.723 176.232 251.307C175.403 254.845 175.316 254.998 175.28 255.063C174.92 255.702 166.657 266.943 166.306 267.421L166.099 267.703L162.617 263.015Z" fill="#F7A491"/>
<path d="M176.869 237.931C176.869 237.931 176.247 236.338 175.141 236.334C175.141 236.334 175.758 236.111 176.29 236.531C176.819 236.951 176.869 237.931 176.869 237.931Z" fill="#F47458"/>
<path d="M160.765 234.851L159.779 241.102C159.779 241.102 163.538 244.125 165.729 243.487C167.567 242.951 166.306 240.544 166.306 240.544C166.306 240.544 165.326 237.208 165.627 235.459C165.927 233.71 160.765 234.851 160.765 234.851Z" fill="#F7A491"/>
<path d="M161.474 236.741C162.415 237.187 164.278 237.796 165.728 237.942C165.589 237.067 165.51 236.143 165.628 235.459C165.766 234.651 164.74 234.46 163.597 234.489C162.1 234.618 160.766 234.851 160.766 234.851L160.577 236.053C160.86 236.353 161.16 236.593 161.474 236.741Z" fill="#FE875E"/>
<path d="M156.023 227.641C155.867 227.641 157.509 234.624 160.048 235.825C162.586 237.027 166.374 236.4 167.085 234.52C167.87 232.439 165.004 225.315 161.431 224.411C157.861 223.506 156.023 227.641 156.023 227.641Z" fill="#F7A491"/>
<path d="M158.96 221.227C156.932 222.399 156.002 224.137 155.688 224.848C154.735 225.302 153.584 226.279 153.032 228.917C152.353 232.161 154.77 234.66 157.332 235.412C159.894 236.165 160.29 237.863 160.29 237.863L160.581 236.035C160.581 236.035 160.011 234.442 159.153 233.646C158.296 232.849 159.559 231.689 159.671 230.742C159.755 230.013 159.22 228.597 159.336 227.4C159.336 227.4 160.76 225.238 162.163 224.704C164.557 223.793 161.563 219.722 158.96 221.227Z" fill="#13375B"/>
<path d="M160.04 231.958C160.371 232.764 160.236 233.564 159.738 233.746C159.239 233.927 158.566 233.42 158.233 232.614C157.902 231.807 158.036 231.007 158.535 230.826C159.035 230.645 159.709 231.152 160.04 231.958Z" fill="#F7A491"/>
<path d="M169.497 263.188L184.277 260.774C184.277 260.774 182.595 256.531 181.994 256.531C181.394 256.531 170.817 261.158 170.817 261.158L169.976 262.851L169.497 263.188Z" fill="#F8A492"/>
<path d="M161.927 273.342C161.927 273.342 160.453 280.483 161.053 285.9C161.654 291.315 161.702 310.552 161.702 310.552L159.41 341.33L164.851 341.45C164.851 341.45 171.303 310.685 171.181 311.476C171.062 312.266 173.345 289.815 173.345 289.815L165.654 272.667L161.927 273.342Z" fill="#184655"/>
<path d="M163.37 273.002C163.37 273.002 162.41 279.434 163.611 282.253C164.812 285.075 173.918 312.748 174.039 315.005C174.158 317.261 177.188 342.202 177.188 342.202L183.514 342.025L184.883 314.297L182.017 279.447L179.234 270.636L163.37 273.002Z" fill="#13375B"/>
<path d="M159.779 241.101C159.779 241.101 161.338 242.127 162.793 242.008C164.249 241.888 166.306 240.544 166.306 240.544L166.019 239.572C166.019 239.572 162.255 239.022 162.16 239.082C162.066 239.142 159.779 241.101 159.779 241.101Z" fill="#F7A491"/>
<path d="M176.406 256.32C176.406 256.32 181.997 261.606 184.52 260.704C187.044 259.801 188.089 256.716 181.932 252.203C176.419 248.163 176.406 256.32 176.406 256.32Z" fill="#F8A492"/>
<path d="M180.193 262.849C179.362 258.321 173.343 244.234 172.862 241.64C172.629 240.379 169.382 240.35 166.289 240.516C163.023 240.689 159.778 241.104 159.778 241.104C159.778 241.104 156.887 241.58 155.614 242.774C154.342 243.968 154.003 247.271 155.834 253.542C157.277 258.493 159.067 261.21 159.953 264.816C160.132 266.025 160.286 267.219 160.49 268.613C160.815 274.005 160.486 281.127 160.486 281.127C160.486 281.127 176.228 284.4 182.118 279.434C182.116 279.434 181.044 267.487 180.193 262.849Z" fill="#355389"/>
<path d="M184.209 253.114C184.209 253.114 178.033 258.222 177.671 258.222C177.438 258.222 168.856 251.897 166.875 246.7C165.78 243.826 168.076 240.612 170.701 240.623C172.52 240.631 173.329 241.099 176.934 244.146C180.539 247.193 184.209 253.114 184.209 253.114Z" fill="#466EB6"/>
<path d="M209.652 140.445C208.141 139.423 206.594 138.455 205.104 137.404C204.833 137.211 204.592 136.721 204.623 136.393C204.819 134.287 205.135 132.191 205.318 130.085C205.37 129.472 205.508 129.15 206.097 128.92C208.166 128.111 210.212 127.245 212.266 126.396C212.599 126.259 212.928 126.109 213.502 125.86C212.52 122.701 211.552 119.579 210.557 116.378C207.912 116.904 205.502 117.342 203.112 117.88C202.269 118.069 201.811 117.973 201.268 117.19C200.159 115.591 198.829 114.146 197.636 112.604C197.453 112.366 197.374 111.89 197.48 111.614C198.292 109.508 199.103 107.397 200.04 105.347C200.49 104.363 200.265 103.833 199.386 103.376C199.047 103.2 198.772 102.901 198.467 102.659C196.949 101.841 195.428 101.021 193.91 100.204C193.719 100.165 193.515 100.157 193.338 100.084C191.484 99.3242 191.842 99.3396 190.79 100.89C189.508 102.778 188.257 104.689 187.158 106.34C184.319 106.074 181.664 105.825 178.924 105.569C177.886 103.046 176.802 100.408 175.711 97.7544C172.366 98.2057 169.292 99.2605 166.276 100.693C166.798 103.299 167.3 105.839 167.82 108.376C167.914 108.832 167.885 109.107 167.44 109.441C165.697 110.748 163.984 112.1 162.334 113.524C161.859 113.934 161.553 113.936 161.043 113.72C158.933 112.831 156.804 111.992 154.693 111.113C154.167 110.895 153.829 110.91 153.44 111.425C151.696 113.732 150.508 116.312 149.533 119.012C149.34 119.546 149.596 119.778 149.998 120.04C151.862 121.253 153.696 122.512 155.567 123.712C156.106 124.057 156.271 124.356 156.163 125.054C155.792 127.466 155.559 129.9 155.251 132.521C152.962 133.466 150.364 134.538 147.768 135.61C148.212 139.026 149.126 142.186 150.635 145.199C153.469 144.614 156.227 144.047 158.723 143.533C160.28 145.332 161.685 147.04 163.194 148.653C163.764 149.262 163.866 149.721 163.533 150.473C162.644 152.477 161.834 154.515 161.012 156.548C160.85 156.949 160.531 157.418 161.156 157.747C163.703 159.093 166.247 160.443 168.794 161.789C169.334 162.075 169.677 161.894 170.004 161.382C171.223 159.483 172.526 157.634 173.711 155.715C174.169 154.974 174.66 154.945 175.428 155.049C177.324 155.304 179.233 155.524 181.143 155.566C181.965 155.585 182.267 155.8 182.544 156.532C183.435 158.887 184.421 161.207 185.35 163.492C187.389 163.492 192.941 161.749 194.943 160.503C194.42 157.996 193.915 155.456 193.342 152.932C193.197 152.301 193.386 152.029 193.867 151.649C195.422 150.423 196.891 149.087 198.435 147.845C198.695 147.636 199.222 147.521 199.518 147.636C201.401 148.375 203.258 149.179 205.116 149.983C206.153 150.433 206.571 150.618 206.969 150.352L211.317 142.248C211.327 141.583 210.874 141.272 209.652 140.445ZM193.492 137.604C189.604 144.848 180.594 147.561 173.365 143.668C166.135 139.772 163.427 130.745 167.313 123.501C171.199 116.258 180.211 113.545 187.441 117.438C194.67 121.332 197.38 130.361 193.492 137.604Z" fill="#CAE1F9"/>
<path d="M134.015 175.134C131.571 175.373 129.136 175.697 126.688 175.886C126.241 175.921 125.571 175.616 125.323 175.252C123.722 172.897 122.257 170.448 120.64 168.105C120.17 167.422 120.038 166.971 120.451 166.227C121.905 163.608 123.288 160.948 124.694 158.303C124.921 157.874 125.134 157.437 125.517 156.683C121.793 154.247 118.111 151.838 114.336 149.37C112.042 152.189 109.915 154.719 107.894 157.331C107.182 158.252 106.622 158.546 105.388 158.198C102.867 157.491 100.249 157.136 97.6893 156.561C97.2966 156.472 96.8058 156.044 96.6807 155.666C95.7203 152.781 94.7521 149.894 93.9687 146.957C93.5934 145.548 92.9063 145.191 91.5994 145.472C91.097 145.58 90.5562 145.507 90.0326 145.517C87.7537 145.974 85.4767 146.431 83.1978 146.886C82.9669 147.011 82.7494 147.177 82.503 147.254C79.9277 148.06 80.3126 147.769 80.5475 150.284C80.8342 153.348 81.1711 156.407 81.4444 159.064C78.2686 161.23 75.3006 163.255 72.2345 165.343C68.9951 163.616 65.6114 161.81 62.2065 159.994C59.1211 163.338 56.8326 167.077 54.929 171.158C57.7007 173.414 60.3992 175.62 63.1131 177.807C63.6 178.199 63.8079 178.509 63.6308 179.24C62.9398 182.096 62.3201 184.973 61.8273 187.87C61.6849 188.705 61.3692 188.969 60.6552 189.185C57.7045 190.076 54.775 191.035 51.8283 191.939C51.0968 192.163 50.7581 192.473 50.7947 193.341C50.9602 197.235 51.938 200.937 53.2372 204.576C53.4951 205.298 53.959 205.317 54.6018 205.242C57.5756 204.898 60.557 204.628 63.5288 204.266C64.3853 204.162 64.8107 204.329 65.2977 205.147C66.978 207.972 68.82 210.697 70.7447 213.685C69.178 216.633 67.3995 219.981 65.621 223.327C69.0086 226.49 72.6637 228.987 76.8134 230.815C79.2559 227.772 81.633 224.812 83.7849 222.131C86.9434 222.66 89.8652 223.227 92.812 223.601C93.9264 223.742 94.423 224.131 94.7213 225.199C95.5143 228.044 96.4189 230.858 97.3082 233.673C97.4833 234.231 97.5526 234.99 98.4861 234.796C102.284 234.005 106.081 233.218 109.877 232.425C110.683 232.258 110.882 231.774 110.785 230.962C110.423 227.94 110.192 224.902 109.779 221.888C109.619 220.725 110.106 220.272 110.991 219.721C113.178 218.357 115.349 216.94 117.366 215.345C118.236 214.656 118.733 214.622 119.649 215.142C122.592 216.82 125.602 218.382 128.524 219.956C130.639 218.203 134.912 211.617 135.923 208.603C133.232 206.451 130.531 204.247 127.773 202.119C127.082 201.587 127.046 201.146 127.221 200.336C127.785 197.724 128.166 195.075 128.705 192.458C128.795 192.018 129.244 191.445 129.652 191.31C132.239 190.458 134.856 189.696 137.474 188.934C138.937 188.508 139.53 188.342 139.712 187.721L137.287 175.57C136.727 174.876 135.992 174.941 134.015 175.134ZM114.802 186.08C116.971 196.942 109.94 207.51 99.0982 209.681C88.258 211.854 77.7104 204.81 75.5431 193.947C73.3739 183.085 80.405 172.517 91.2471 170.346C102.087 168.174 112.633 175.217 114.802 186.08Z" fill="#9BC1F9"/>
<path opacity="0.2" d="M128.934 111.974C127.954 111.509 126.959 111.077 125.989 110.591C125.812 110.503 125.627 110.235 125.615 110.04C125.542 108.784 125.542 107.523 125.461 106.268C125.438 105.903 125.49 105.701 125.815 105.514C126.959 104.852 128.085 104.16 129.218 103.479C129.401 103.369 129.582 103.252 129.898 103.053C129.039 101.285 128.193 99.5336 127.323 97.7401C125.815 98.2859 124.435 98.7583 123.078 99.2887C122.599 99.4757 122.322 99.4584 121.933 99.0476C121.138 98.2068 120.228 97.4759 119.389 96.6756C119.26 96.5522 119.171 96.2783 119.21 96.1067C119.5 94.7953 119.787 93.482 120.157 92.1919C120.334 91.5729 120.155 91.2817 119.597 91.0907C119.381 91.0175 119.194 90.867 118.994 90.7513C118.028 90.4061 117.062 90.0609 116.095 89.7157C115.98 89.71 115.859 89.7235 115.749 89.6965C114.592 89.4149 114.802 89.3918 114.323 90.3984C113.738 91.623 113.172 92.8591 112.673 93.9275C110.979 94.0259 109.397 94.1165 107.763 94.2091C106.928 92.8187 106.056 91.3646 105.178 89.9028C103.252 90.4659 101.539 91.3627 99.8929 92.4735C100.432 93.9584 100.953 95.4067 101.485 96.853C101.581 97.1134 101.589 97.2773 101.356 97.5126C100.447 98.4363 99.5599 99.3851 98.7169 100.371C98.4744 100.654 98.2934 100.683 97.9739 100.602C96.6555 100.268 95.3293 99.9656 94.0089 99.6358C93.6817 99.5548 93.4835 99.5934 93.3006 99.9308C92.4807 101.443 92.011 103.067 91.678 104.74C91.6126 105.072 91.7839 105.184 92.0438 105.304C93.2467 105.851 94.4381 106.426 95.645 106.966C95.9933 107.12 96.1165 107.282 96.1146 107.701C96.1108 109.153 96.1897 110.603 96.2416 112.173C94.979 112.933 93.5489 113.795 92.1169 114.657C92.6828 116.626 93.5008 118.402 94.6576 120.039C96.2724 119.443 97.843 118.863 99.2654 118.336C100.341 119.254 101.319 120.134 102.351 120.947C102.74 121.254 102.842 121.514 102.711 121.987C102.366 123.244 102.072 124.515 101.77 125.784C101.71 126.035 101.564 126.337 101.96 126.476C103.577 127.041 105.194 127.606 106.81 128.169C107.155 128.289 107.338 128.152 107.486 127.822C108.033 126.596 108.635 125.392 109.161 124.158C109.365 123.682 109.651 123.62 110.111 123.612C111.249 123.593 112.39 123.551 113.516 123.406C114.001 123.344 114.198 123.443 114.427 123.85C115.16 125.155 115.945 126.43 116.696 127.691C117.895 127.508 121.004 125.986 122.07 125.076C121.539 123.649 121.017 122.201 120.453 120.768C120.313 120.409 120.397 120.234 120.648 119.966C121.452 119.106 122.197 118.19 122.996 117.32C123.13 117.173 123.429 117.06 123.614 117.1C124.786 117.366 125.95 117.673 127.113 117.979C127.763 118.151 128.025 118.222 128.235 118.03L130.071 112.877C130.017 112.493 129.725 112.35 128.934 111.974ZM119.179 111.747C117.539 116.352 112.483 118.753 107.884 117.11C103.288 115.467 100.892 110.401 102.532 105.793C104.172 101.188 109.228 98.7873 113.826 100.43C118.422 102.075 120.819 107.141 119.179 111.747Z" fill="#9BC1F9"/>
<path d="M113.373 346.441L110.465 346.43C110.848 333.713 111.187 314.402 110.546 313.318C110.548 313.322 110.588 313.387 110.74 313.464L113.1 312.847C113.481 313.04 113.712 313.156 113.791 318.563C113.831 321.346 113.816 325.189 113.745 329.986C113.623 338.149 113.377 346.358 113.373 346.441Z" fill="#355389"/>
<path d="M121.896 346.284H102.273C101.369 346.284 100.637 347.019 100.637 347.923C100.637 348.082 100.766 348.211 100.924 348.211H123.247C123.405 348.211 123.534 348.082 123.534 347.923C123.532 347.019 122.799 346.284 121.896 346.284Z" fill="#355389"/>
<path d="M113.056 344.669H110.654C109.944 344.669 109.367 345.247 109.367 345.959C109.367 346.671 109.944 347.249 110.654 347.249H113.058C113.771 347.249 114.346 346.671 114.346 345.959C114.344 345.246 113.769 344.669 113.056 344.669Z" fill="#355389"/>
<path d="M43.4824 290.207H42.3218V348.175H43.4824V290.207Z" fill="#13375B"/>
<path d="M102.005 258.134C101.899 255.558 102.276 253.014 103.427 250.615C104.417 248.552 106.867 247.381 109.099 247.377C116.192 247.368 117.093 256.756 121.608 260.377C122.988 261.484 124.53 262.385 125.835 263.579C130.655 267.985 128.484 276.141 124.059 280.005C120.987 282.686 116.161 284.209 112.375 282.113C110.399 281.02 108.899 279.201 107.831 277.209C106.314 274.382 105.337 271.119 104.259 268.105C103.108 264.898 102.147 261.559 102.005 258.134Z" fill="#13375B"/>
<path d="M82.4393 285.128L97.8719 280.818C97.8719 280.818 101.123 276.442 105.307 270.572C106.676 271.927 107.434 274.012 108.812 275.354L98.5976 286.675C98.2299 287.083 97.7064 287.317 97.1559 287.319L82.9744 287.365L78.1221 287.753V284.64L82.4393 285.128Z" fill="#F48C7F"/>
<path d="M104.656 281.847C104.656 281.847 109.952 276.405 111.315 274.043C112.678 271.678 110.387 273.217 108.047 272.596C107.162 272.361 107.385 267.158 105.71 268.849C102.962 271.624 99.5068 276.476 99.5068 276.476L104.656 281.847Z" fill="#96D9C9"/>
<path d="M112.187 266.459C112.187 266.459 116.941 265.518 119.108 267.335C121.277 269.151 118.644 285.293 118.646 287.969C118.648 290.646 120.136 298.206 120.136 298.206C120.136 298.206 105.729 300.732 103.441 296.715C103.441 296.715 102.79 281.409 102.886 279.484C102.982 277.559 105.119 269.687 105.71 268.845C106.301 268.002 112.187 266.459 112.187 266.459Z" fill="#50BFA5"/>
<path d="M112.217 259.092C112.217 259.092 112.242 259.235 112.286 259.476C112.502 260.639 113.331 264.494 113.893 265.555C114.571 266.835 111.572 270.922 108.687 270.422C107.829 270.274 109.413 266.667 109.338 266.286C109.191 265.555 108.995 264.558 108.791 263.534C108.677 262.957 108.562 262.373 108.452 261.821C108.144 260.259 107.892 258.98 107.892 258.98L112.217 259.092Z" fill="#F7A491"/>
<path d="M112.286 259.476C112.242 259.233 112.217 259.092 112.217 259.092L107.892 258.984C107.892 258.984 108.144 260.263 108.452 261.825C108.56 262.371 108.675 262.953 108.789 263.528C109.457 263.43 110.154 263.106 110.854 262.492C111.616 261.825 112.117 261.023 112.417 260.167C112.363 259.893 112.319 259.657 112.286 259.476Z" fill="#F47458"/>
<path d="M109.308 249.264C109.308 249.264 111.346 249.029 112.624 250.682C113.902 252.335 115.278 257.443 112.104 260.222C108.93 262.999 105.795 259.856 105.331 256.521C104.865 253.185 104.684 249.143 109.308 249.264Z" fill="#F7A491"/>
<path d="M104.389 256.472C104.768 257.208 105.403 257.615 105.809 257.382C106.216 257.149 106.237 256.362 105.858 255.627C105.478 254.89 104.843 254.483 104.437 254.717C104.033 254.948 104.01 255.735 104.389 256.472Z" fill="#F7A491"/>
<path d="M109.078 248.719C109.078 248.719 111.801 253.577 113.749 253.802C115.697 254.026 115.953 256.608 115.953 256.608C115.953 256.608 115.256 250.659 113.327 249.511C111.399 248.364 109.078 248.719 109.078 248.719Z" fill="#13375B"/>
<path d="M113.237 255.023C113.079 255.885 113.397 256.678 113.949 256.79C114.499 256.903 115.075 256.296 115.235 255.432C115.393 254.57 115.075 253.777 114.523 253.666C113.972 253.552 113.397 254.159 113.237 255.023Z" fill="#F7A491"/>
<path d="M94.9136 335.045C94.9136 335.045 99.2866 340.298 99.3155 340.755C99.3444 341.212 99.1423 346.201 98.6226 346.658C98.1029 347.115 96.5746 347.439 97.0654 347.954C97.4369 348.344 100.293 348.259 102.185 348.155C102.738 348.124 103.431 343.708 103.65 343.058C103.968 342.115 104.741 339.992 104.453 339.334C104.312 339.014 103.638 338.356 102.69 337.741C101.691 337.095 97.8738 331.772 97.8738 331.772L94.9136 335.045Z" fill="#F48C7F"/>
<path d="M102.624 337.71C102.624 337.71 99.6869 345.993 98.5379 346.394C98.2318 346.5 96.769 346.77 96.4919 347.418C96.4091 347.613 96.4919 348.266 96.4919 348.266H102.613C102.613 348.266 103.386 344.616 103.692 343.013C103.692 343.013 105.313 339.095 105.132 338.74C104.953 338.383 102.624 337.71 102.624 337.71Z" fill="#B75742"/>
<path d="M68.7199 337.568C68.7199 337.568 65.1495 342.605 65.4633 344.198C65.6307 345.052 66.3814 346.169 65.9502 346.971C65.521 347.773 65.0283 347.976 65.0283 347.976L53.8897 348.155C53.2835 348.165 53.6838 347.775 54.1727 347.415C54.9734 346.826 55.6201 346.437 58.1781 345.199C58.3455 345.118 58.9518 344.732 59.1713 344.599C59.7275 344.26 60.2838 343.725 60.765 343.191C61.5656 342.3 65.0822 335.045 65.0822 335.045L68.7199 337.568Z" fill="#F7A491"/>
<path d="M59.173 344.597C62.1198 345.353 64.2967 344.838 65.5151 344.349C65.8288 345.24 66.2465 346.356 66.0252 347C65.7557 347.789 65.3688 347.967 65.0301 347.976C62.3393 348.048 55.1734 348.142 53.1216 348.169C52.8348 348.173 52.677 347.837 52.8618 347.617C53.3699 347.01 58.9536 344.732 59.173 344.597Z" fill="#B75742"/>
<path d="M81.6367 306.492C81.6367 306.492 86.0578 311.549 87.1857 312.349C88.3136 313.149 99.1365 333.119 99.1365 333.119L95.2812 335.94C95.2812 335.94 85.6074 323.856 81.065 317.392C77.2232 311.927 78.6379 312.274 76.3802 308.947C75.1368 307.115 75.4178 304.639 77.0577 303.154C77.2617 302.969 77.483 302.776 77.7236 302.576C81.0669 299.783 103.985 296.642 103.985 296.642L118.644 298.08C118.644 298.08 106.666 306.496 106.22 306.72C105.773 306.944 89.6802 309.294 89.3453 309.294C89.0123 309.29 81.6367 306.492 81.6367 306.492Z" fill="#B75742"/>
<path d="M120.136 298.206C120.136 298.206 122.65 305.763 118.879 309.29C115.106 312.818 92.7004 312.426 85.3248 312.426C85.3248 312.426 82.3068 320.713 81.9719 322.055C81.637 323.399 66.9973 340.753 66.9973 340.753L62.9746 338.179C62.9746 338.179 78.7325 307.499 79.9605 306.155C81.1885 304.811 98.7345 299.436 103.094 298.206C107.452 296.975 120.136 298.206 120.136 298.206Z" fill="#F47458"/>
<path d="M90.9813 284.61L104.362 281.644C104.362 281.644 109.201 275.415 113.849 270.052C115.218 271.408 115.976 273.493 117.354 274.835L107.14 286.155C106.772 286.564 106.248 286.797 105.698 286.799L91.5164 286.845L86.6641 287.233V284.12L90.9813 284.61Z" fill="#F7A491"/>
<path d="M113.197 281.327C113.197 281.327 118.494 275.885 119.857 273.523C121.219 271.158 120.209 267.197 117.868 266.576C115.528 265.953 108.046 275.954 108.046 275.954L113.197 281.327Z" fill="#96D9C9"/>
<path d="M63.4917 269.349H85.5589C86.1421 269.349 86.6695 269.702 86.8909 270.243L93.6852 286.848H105.852C106.192 286.848 106.467 287.123 106.467 287.465C106.467 287.806 106.192 288.082 105.852 288.082H71.2253C70.2726 288.082 69.4103 287.523 69.0196 286.653L62.1771 271.383C61.7517 270.427 62.4485 269.349 63.4917 269.349Z" fill="#B75742"/>
<path d="M75.3729 279.018C75.5211 279.765 76.1717 280.262 76.8222 280.133C77.4747 280.002 77.8808 279.292 77.7326 278.546C77.5844 277.799 76.9339 277.302 76.2833 277.431C75.6308 277.562 75.2228 278.272 75.3729 279.018Z" fill="white"/>
<path d="M108.176 290.881H42.2475C41.4756 290.881 40.8501 290.254 40.8501 289.481C40.8501 288.708 41.4756 288.081 42.2475 288.081H108.176C108.948 288.081 109.573 288.708 109.573 289.481C109.573 290.254 108.948 290.881 108.176 290.881Z" fill="#184655"/>
<path d="M108.08 258.385L111.069 258.231C111.069 258.231 111.06 259.373 109.747 259.479C108.147 259.608 108.08 258.385 108.08 258.385Z" fill="white"/>
<path d="M98.727 313.202L100.076 307.571C101.021 303.633 104.501 300.767 108.541 300.603L125.643 299.911L126.17 298.166L108.472 298.883C103.668 299.078 99.5277 302.485 98.4056 307.17L96.9717 313.154C97.4567 313.173 98.0495 313.19 98.727 313.202Z" fill="#355389"/>
<path d="M121.663 310.203C121.663 310.203 98.1672 310.606 95.717 310.203C93.2668 309.8 92.2081 312.878 92.9376 314.488C93.669 316.1 95.6804 316.723 98.6407 316.87C101.603 317.016 126.244 317.712 126.938 317.053C127.506 316.515 134.976 290.928 137.694 281.569C138.237 279.698 137.167 277.745 135.299 277.195C133.442 276.649 131.494 277.704 130.932 279.559L121.663 310.203Z" fill="#184655"/>
<path d="M108.182 290.207H107.021V348.175H108.182V290.207Z" fill="#13375B"/>
<path d="M107.892 293.959H42.3218V294.582H107.892V293.959Z" fill="#13375B"/>
<path d="M282.761 11.2798C282.761 11.2798 291.28 16.8049 312.275 16.0528C312.275 16.0528 289.771 24.567 280.973 25.8841L277.352 11.5536L282.761 11.2798Z" fill="#E25A44"/>
<path d="M286.776 18.4933C286.776 18.4933 285.055 22.5277 280.973 25.8813L279.086 18.4143L279.208 14.8022L286.776 18.4933Z" fill="#B75742"/>
<path d="M254.399 3.10277C254.399 3.10277 278.999 1.43657 282.824 2.84436L286.779 18.492C286.779 18.492 272.776 17.2867 259.136 21.8456L254.399 3.10277Z" fill="#F47458"/>
<path d="M239.579 177.526C239.579 177.526 238.393 179.464 238.501 180.039C238.609 180.613 240.033 186.688 240.819 187.091C241.604 187.492 243.592 187.415 243.146 188.204C242.809 188.8 239.254 189.592 236.883 190.057C236.19 190.192 233.955 184.952 233.481 184.22C232.794 183.155 231.178 180.773 231.328 179.871C231.401 179.431 232.028 178.407 233.01 177.35C234.042 176.24 234.773 174.163 234.773 174.163L239.579 177.526Z" fill="#F48C7F"/>
<path d="M256.79 176.972C256.79 176.972 256.39 181.317 256.39 181.326C256.445 181.984 256.426 183.65 256.573 184.225C257.117 186.383 265.819 179.93 263.401 179.527C263.182 179.49 262.391 178.956 262.139 178.239C261.754 177.134 262.312 175.481 262.312 175.481L256.79 176.972Z" fill="#F7A491"/>
<path d="M253.263 98.8691C253.263 98.8691 255.777 105.837 255.804 105.943C258.726 117.504 266.719 139.508 266.835 141.791C267.114 147.363 262.525 177.306 262.525 177.306L256.166 178.133L256.027 143.712L249.774 131.43L239.074 106.73L253.263 98.8691Z" fill="#3C8F7C"/>
<path d="M234.143 110.448L234.684 117.52L238.56 146.202L233.377 176.512C233.377 176.512 236.077 180.047 238.722 179.967L250.861 147.12L253.748 108.296L251.319 100.449L234.143 110.448Z" fill="#50BFA5"/>
<path d="M233.079 177.291C233.079 177.291 239.293 186.603 240.838 186.738C241.248 186.773 243.142 186.647 243.685 187.363C243.849 187.579 244.195 188.657 244.195 188.657L236.4 190.906C236.4 190.906 234.292 186.063 233.414 184.179C233.414 184.179 230.19 179.846 230.3 179.35C230.412 178.853 233.079 177.291 233.079 177.291Z" fill="#13375B"/>
<path d="M256.185 185.33L256.421 181.277C256.421 181.277 259.006 181.674 260.132 181.213C261.258 180.752 263.372 179.514 263.372 179.514C268.42 179.869 272.427 179.645 272.044 181.059L256.185 185.33Z" fill="#13375B"/>
<path d="M268.249 75.3552L271.612 77.9394C272.26 77.4399 273.675 75.332 274.593 74.6764L271.521 71.3189C271.267 71.1338 271.132 70.8271 271.161 70.5147C271.182 70.2929 271.213 70.0847 271.246 69.9979C271.342 69.7318 271.427 69.4155 271.523 69.1513C271.619 68.8851 270.984 68.3529 270.651 68.2584C270.318 68.1639 270.208 69.4425 270.064 69.8243C269.627 70.9718 269.104 74.1132 269.004 74.6339L268.249 75.3552Z" fill="#F48C7F"/>
<path d="M271.976 77.6115C271.033 76.6029 269.699 76.0359 268.712 74.9868L253.793 85.2791C253.793 85.2791 242.258 71.612 235.995 76.4544C238.735 81.0789 242.04 85.5105 243.742 87.6222C247.572 92.374 253.421 94.6419 254.563 94.1173C255.846 93.5272 271.641 78.0184 271.976 77.6115Z" fill="#13375B"/>
<path d="M206.72 43.4027C207.213 44.7198 208.068 46.7929 208.068 46.7929C208.093 47.3888 208.214 49.8631 208.37 52.8946L212.568 50.5901C212.568 50.5901 211.923 45.6956 212.085 45.3736C212.221 45.0997 212.539 45.3832 213.657 43.2793C213.981 42.6718 213.932 41.6632 213.932 41.6632C213.932 41.6632 213.865 40.4232 213.574 40.3422C213.284 40.2612 212.991 40.483 212.916 40.7086C212.841 40.9342 212.928 41.426 212.853 41.6497C212.778 41.8753 212.171 42.209 211.902 42.2282C211.632 42.2475 211.496 38.5834 211.496 38.5834C211.496 38.5834 211.521 37.5363 211.557 37.1911C211.588 36.896 211.746 36.0224 211.746 36.0224C211.746 36.0224 211.904 34.765 211.515 34.7168C211.286 34.6898 210.837 35.7505 210.574 36.8497C210.291 38.0338 210.198 39.2661 210.077 39.2642C209.79 39.2603 209.7 37.2528 209.7 37.2528C209.7 37.2528 209.871 36.3078 209.812 35.8797C210.014 35.3204 210.071 34.3215 209.594 34.2983C209.506 34.2945 209.042 35.6097 209.042 35.6097C209.042 35.6097 208.905 36.5122 208.815 36.9384C208.653 37.6886 208.753 38.8303 208.684 39.349C208.626 39.7791 208.509 39.619 208.466 39.6422C208.433 39.6595 208.424 39.0771 208.397 38.2768C208.383 37.8737 208.281 37.4205 208.339 36.9519C208.391 36.52 208.378 35.9106 208.36 35.5441C208.312 34.5066 207.679 34.6898 207.567 35.6579C207.525 36.0263 207.483 36.4274 207.442 36.8362C207.281 38.4195 207.471 39.9044 207.306 39.9372C207.092 39.9796 206.907 37.2566 206.907 37.2566C206.907 37.2566 206.395 35.7987 206.235 37.2296C206.049 38.8881 206.247 40.1976 206.26 40.2554C206.341 40.643 206.228 42.0855 206.72 43.4027Z" fill="#F8A492"/>
<path d="M236.173 55.9897C236.173 55.9897 233.642 53.8896 232.183 56.9944C232.183 56.9944 230.697 56.3812 229.889 57.8931C229.889 57.8931 227.283 57.4399 227.129 61.2795C227.129 61.2795 225.807 61.1927 225.822 62.7528C225.837 64.3149 226.742 65.2464 226.742 65.2464C226.742 65.2464 226.082 65.8808 226.582 67.2558C227.008 68.4264 228.026 68.4881 228.026 68.4881C228.026 68.4881 228.54 70.486 229.492 70.9893C230.445 71.4946 231.606 71.0549 231.606 71.0549C231.606 71.0549 232.056 72.1175 233.069 71.8938C234.081 71.672 235.232 70.54 236.433 70.8409C237.634 71.1417 240.554 70.3163 240.554 70.3163C240.554 70.3163 243.718 68.4187 242.304 65.1172C242.304 65.1172 243.869 63.314 242.102 61.5938C242.102 61.5938 242.864 58.4736 240.431 56.9829C237.994 55.496 236.173 55.9897 236.173 55.9897Z" fill="#F47458"/>
<path d="M243.337 77.5715L238.185 74.916C238.185 74.916 233.608 75.5852 233.04 75.6546C232.472 75.724 231.404 97.0897 231.314 105.093C231.223 113.096 232.199 114.392 232.199 114.392C232.199 114.392 239.657 115.148 244.972 114.02C250.498 112.847 256.416 109.064 256.416 109.064C256.416 109.064 249.814 94.5055 248.296 89.8945C246.777 85.2835 243.337 77.5715 243.337 77.5715Z" fill="#F7CC7F"/>
<path d="M233.245 75.5996L216.322 62.0463C216.322 62.0463 212.467 47.7582 212.252 47.2279C212.04 46.7072 208.263 46.8711 206.739 46.9058C206.25 46.9174 208.862 62.3645 209.898 64.8812C211.122 67.8549 224.2 80.4922 224.2 80.4922C224.2 80.4922 227.159 87.8377 227.34 93.467C227.64 102.816 226.976 115.806 227.419 116.159C230.054 117.407 239.469 116.433 239.949 115.401C245.238 104.008 233.245 75.5996 233.245 75.5996Z" fill="#13375B"/>
<path d="M237.739 72.1389L238.51 75.1107C238.51 75.1107 239.946 79.3533 238.876 80.3349C237.806 81.3165 233.252 75.6237 233.252 75.6237L232.73 67.9194L237.739 72.1389Z" fill="#F7A491"/>
<path d="M232.9 70.4149C234.184 72.9084 236.682 74.2352 238.393 74.6594L237.739 72.1389L232.73 67.9175L232.9 70.4149Z" fill="#F47458"/>
<path d="M225.867 63.4715C226.007 64.6383 226.783 65.5022 227.599 65.4039C228.415 65.3055 228.964 64.2796 228.821 63.1128C228.681 61.9461 227.905 61.0821 227.089 61.1805C226.273 61.2788 225.726 62.3048 225.867 63.4715Z" fill="#F47458"/>
<path d="M229.755 58.3962C229.835 59.0653 230.705 59.5127 231.699 59.3913C232.692 59.2717 233.431 58.6295 233.35 57.9603C233.269 57.2911 232.399 56.8437 231.406 56.9652C230.413 57.0848 229.674 57.725 229.755 58.3962Z" fill="#F47458"/>
<path d="M234.465 59.548C236.744 58.4391 239.468 59.7158 240.128 62.1263C240.415 63.1735 240.719 64.4984 240.923 65.9621C241.414 69.4835 240.005 73.1379 238.405 73.3327C236.806 73.5275 232.11 71.7784 231.345 66.7875C230.872 63.7077 232.075 60.7108 234.465 59.548Z" fill="#F7A491"/>
<path d="M232.572 67.0393C232.666 67.8184 232.228 68.5107 231.592 68.5879C230.957 68.665 230.366 68.0961 230.272 67.317C230.178 66.5379 230.617 65.8455 231.252 65.7684C231.887 65.6932 232.478 66.2621 232.572 67.0393Z" fill="#F7A491"/>
<path d="M243.057 61.1927C243.814 59.9078 242.946 57.9894 241.118 56.9078C239.29 55.8263 237.194 55.9911 236.437 57.276C235.68 58.5609 236.548 60.4793 238.376 61.5609C240.204 62.6424 242.3 62.4776 243.057 61.1927Z" fill="#F47458"/>
<path d="M236.993 58.5508C237.062 59.1197 236.431 59.6654 235.584 59.7676C234.737 59.8698 233.994 59.4919 233.925 58.921C233.855 58.3521 234.487 57.8064 235.334 57.7042C236.181 57.602 236.924 57.9799 236.993 58.5508Z" fill="#F47458"/>
<path d="M242.085 62.3822C242.174 63.115 241.66 63.7803 240.936 63.8671C240.212 63.9539 239.554 63.4313 239.467 62.6985C239.379 61.9656 239.893 61.3003 240.617 61.2135C241.338 61.1267 241.997 61.6494 242.085 62.3822Z" fill="#F47458"/>
<path d="M247.634 80.7473C247.634 80.7473 254.786 97.687 257.33 103.66C257.606 104.306 258.99 108.527 259.04 108.949C259.153 109.885 255.232 111.564 254.742 111.553C254.303 111.541 248.544 93.6507 245.197 84.961C244.063 82.0163 242.4 79.3048 240.291 76.9598L238.666 75.6156L238.51 75.1123C238.51 75.1104 245.774 75.7583 247.634 80.7473Z" fill="#13375B"/>
<path d="M254.292 7.43912e-05L253.01 0.325195L282.16 115.699L283.442 115.374L254.292 7.43912e-05Z" fill="#13375B"/>
<path d="M275.22 73.1686C275.174 72.914 275.091 72.6517 274.987 72.3914C274.868 72.1137 274.674 71.7781 274.543 71.6798C274.458 71.6181 274.397 71.4156 274.318 71.2092C274.293 71.1437 274.258 71.08 274.218 71.0222C274.218 71.0202 274.216 71.0202 274.216 71.0183C274.094 70.8525 273.942 70.7117 273.775 70.5921C273.615 70.4783 273.477 70.3298 273.301 70.0772C273.165 69.8805 272.984 69.7127 272.768 69.6067C272.557 69.5025 272.393 69.5006 272.318 69.6317C271.966 70.2373 270.206 72.1696 270.919 73.103C271.515 73.884 272.293 74.6978 272.453 75.0681C272.672 75.5753 273.446 75.5406 273.908 75.3632C274.778 75.0334 275.461 74.4838 275.22 73.1686Z" fill="#F7A491"/>
<path d="M374.547 347.716H0V349.046H374.547V347.716Z" fill="#184655"/>
<path d="M163.729 233.598C163.729 233.598 164.325 234.57 165.505 233.982C166.943 233.264 166.369 232.185 166.369 232.185L163.729 233.598Z" fill="white"/>
</svg>
