<svg width="131" height="23" viewBox="0 0 131 23" fill="none" xmlns="http://www.w3.org/2000/svg">
<g clip-path="url(#clip0)">
<path d="M20.1306 8.41915C20.0729 8.24934 19.9668 8.10013 19.8253 7.98994C19.6838 7.87975 19.5132 7.81341 19.3344 7.7991L14.1053 7.38359L11.8424 2.37458C11.7704 2.21324 11.6532 2.07622 11.5049 1.98003C11.3567 1.88385 11.1838 1.83262 11.0071 1.83252C10.8304 1.83242 10.6575 1.88347 10.5092 1.97949C10.3608 2.07551 10.2435 2.21241 10.1712 2.37366L7.90842 7.38359L2.67927 7.7991C2.50358 7.81302 2.33562 7.87726 2.19548 7.98413C2.05534 8.09101 1.94896 8.236 1.88907 8.40175C1.82917 8.5675 1.8183 8.747 1.85774 8.91877C1.89719 9.09054 1.98529 9.24731 2.1115 9.37032L5.97581 13.1374L4.60913 19.0554C4.56763 19.2345 4.58093 19.422 4.6473 19.5935C4.71368 19.765 4.83006 19.9125 4.98135 20.0171C5.13263 20.1216 5.31184 20.1782 5.49571 20.1796C5.67959 20.181 5.85964 20.1271 6.0125 20.0249L11.0068 16.6954L16.0012 20.0249C16.1574 20.1286 16.3417 20.182 16.5292 20.1779C16.7167 20.1738 16.8984 20.1124 17.0499 20.0019C17.2015 19.8914 17.3156 19.7372 17.3768 19.5599C17.4381 19.3827 17.4436 19.1909 17.3926 19.0105L15.715 13.1402L19.8756 9.396C20.148 9.15018 20.248 8.76678 20.1306 8.41915V8.41915Z" fill="#E77C40"/>
<path d="M47.1457 8.41915C47.0881 8.24934 46.9819 8.10013 46.8404 7.98994C46.699 7.87975 46.5283 7.81341 46.3495 7.7991L41.1204 7.38359L38.8576 2.37458C38.7855 2.21324 38.6683 2.07622 38.5201 1.98003C38.3719 1.88385 38.199 1.83262 38.0223 1.83252C37.8456 1.83242 37.6726 1.88347 37.5243 1.97949C37.376 2.07551 37.2586 2.21241 37.1864 2.37366L34.9236 7.38359L29.6944 7.7991C29.5187 7.81302 29.3508 7.87726 29.2106 7.98413C29.0705 8.09101 28.9641 8.236 28.9042 8.40175C28.8443 8.5675 28.8334 8.747 28.8729 8.91877C28.9123 9.09054 29.0004 9.24731 29.1266 9.37032L32.9909 13.1374L31.6243 19.0554C31.5828 19.2345 31.5961 19.422 31.6624 19.5935C31.7288 19.765 31.8452 19.9125 31.9965 20.0171C32.1478 20.1216 32.327 20.1782 32.5109 20.1796C32.6947 20.181 32.8748 20.1271 33.0276 20.0249L38.022 16.6954L43.0163 20.0249C43.1726 20.1286 43.3568 20.182 43.5443 20.1779C43.7318 20.1738 43.9135 20.1124 44.0651 20.0019C44.2166 19.8914 44.3307 19.7372 44.392 19.5599C44.4532 19.3827 44.4587 19.1909 44.4078 19.0105L42.7301 13.1402L46.8907 9.396C47.1631 9.15018 47.2631 8.76678 47.1457 8.41915V8.41915Z" fill="#E77C40"/>
<path d="M74.1569 8.41915C74.0993 8.24934 73.9932 8.10013 73.8517 7.98994C73.7102 7.87975 73.5395 7.81341 73.3608 7.7991L68.1316 7.38359L65.8688 2.37458C65.7967 2.21324 65.6795 2.07622 65.5313 1.98003C65.3831 1.88385 65.2102 1.83262 65.0335 1.83252C64.8568 1.83242 64.6839 1.88347 64.5355 1.97949C64.3872 2.07551 64.2698 2.21241 64.1976 2.37366L61.9348 7.38359L56.7056 7.7991C56.5299 7.81302 56.362 7.87726 56.2218 7.98413C56.0817 8.09101 55.9753 8.236 55.9154 8.40175C55.8555 8.5675 55.8447 8.747 55.8841 8.91877C55.9236 9.09054 56.0117 9.24731 56.1379 9.37032L60.0022 13.1374L58.6355 19.0554C58.594 19.2345 58.6073 19.422 58.6737 19.5935C58.74 19.765 58.8564 19.9125 59.0077 20.0171C59.159 20.1216 59.3382 20.1782 59.5221 20.1796C59.706 20.181 59.886 20.1271 60.0389 20.0249L65.0332 16.6954L70.0275 20.0249C70.1838 20.1286 70.368 20.182 70.5555 20.1779C70.743 20.1738 70.9248 20.1124 71.0763 20.0019C71.2278 19.8914 71.3419 19.7372 71.4032 19.5599C71.4644 19.3827 71.47 19.1909 71.419 19.0105L69.7414 13.1402L73.9019 9.396C74.1744 9.15018 74.2743 8.76678 74.1569 8.41915V8.41915Z" fill="#E77C40"/>
<path d="M101.171 8.41915C101.113 8.24934 101.007 8.10013 100.865 7.98994C100.724 7.87975 100.553 7.81341 100.374 7.7991L95.1453 7.38359L92.8825 2.37458C92.8104 2.21324 92.6932 2.07622 92.545 1.98003C92.3968 1.88385 92.2239 1.83262 92.0472 1.83252C91.8705 1.83242 91.6975 1.88347 91.5492 1.97949C91.4009 2.07551 91.2835 2.21241 91.2113 2.37366L88.9485 7.38359L83.7193 7.7991C83.5436 7.81302 83.3757 7.87726 83.2355 7.98413C83.0954 8.09101 82.989 8.236 82.9291 8.40175C82.8692 8.5675 82.8583 8.747 82.8978 8.91877C82.9372 9.09054 83.0253 9.24731 83.1515 9.37032L87.0158 13.1374L85.6492 19.0554C85.6077 19.2345 85.621 19.422 85.6873 19.5935C85.7537 19.765 85.8701 19.9125 86.0214 20.0171C86.1727 20.1216 86.3519 20.1782 86.5358 20.1796C86.7196 20.181 86.8997 20.1271 87.0525 20.0249L92.0469 16.6954L97.0412 20.0249C97.1975 20.1286 97.3817 20.182 97.5692 20.1779C97.7567 20.1738 97.9384 20.1124 98.09 20.0019C98.2415 19.8914 98.3556 19.7372 98.4169 19.5599C98.4781 19.3827 98.4836 19.1909 98.4327 19.0105L96.755 13.1402L100.916 9.396C101.188 9.15018 101.288 8.76678 101.171 8.41915V8.41915Z" fill="#E77C40"/>
<path d="M128.184 8.41915C128.127 8.24934 128.021 8.10013 127.879 7.98994C127.738 7.87975 127.567 7.81341 127.388 7.7991L122.159 7.38359L119.896 2.37458C119.824 2.21324 119.707 2.07622 119.559 1.98003C119.41 1.88385 119.238 1.83262 119.061 1.83252C118.884 1.83242 118.711 1.88347 118.563 1.97949C118.415 2.07551 118.297 2.21241 118.225 2.37366L115.962 7.38359L110.733 7.7991C110.557 7.81302 110.389 7.87726 110.249 7.98413C110.109 8.09101 110.003 8.236 109.943 8.40175C109.883 8.5675 109.872 8.747 109.911 8.91877C109.951 9.09054 110.039 9.24731 110.165 9.37032L114.03 13.1374L112.663 19.0554C112.621 19.2345 112.635 19.422 112.701 19.5935C112.767 19.765 112.884 19.9125 113.035 20.0171C113.186 20.1216 113.366 20.1782 113.549 20.1796C113.733 20.181 113.913 20.1271 114.066 20.0249L119.061 16.6954L124.055 20.0249C124.211 20.1286 124.395 20.182 124.583 20.1779C124.77 20.1738 124.952 20.1124 125.104 20.0019C125.255 19.8914 125.369 19.7372 125.431 19.5599C125.492 19.3827 125.497 19.1909 125.446 19.0105L123.769 13.1402L127.929 9.396C128.202 9.15018 128.302 8.76678 128.184 8.41915V8.41915Z" fill="#E77C40"/>
</g>
<defs>
<clipPath id="clip0">
<rect width="130.068" height="22.0136" fill="white"/>
</clipPath>
</defs>
</svg>
