<svg width="131" height="23" viewBox="0 0 131 23" fill="none" xmlns="http://www.w3.org/2000/svg">
<g clip-path="url(#clip0)">
<path d="M20.1306 8.41915C20.0729 8.24934 19.9668 8.10013 19.8253 7.98994C19.6838 7.87975 19.5132 7.81341 19.3344 7.7991L14.1053 7.38359L11.8424 2.37458C11.7704 2.21324 11.6532 2.07622 11.5049 1.98003C11.3567 1.88385 11.1838 1.83262 11.0071 1.83252C10.8304 1.83242 10.6575 1.88347 10.5092 1.97949C10.3608 2.07551 10.2435 2.21241 10.1712 2.37366L7.90842 7.38359L2.67927 7.7991C2.50358 7.81302 2.33562 7.87726 2.19548 7.98413C2.05534 8.09101 1.94896 8.236 1.88907 8.40175C1.82917 8.5675 1.8183 8.747 1.85774 8.91877C1.89719 9.09054 1.98529 9.24731 2.1115 9.37032L5.97581 13.1374L4.60913 19.0554C4.56763 19.2345 4.58093 19.422 4.6473 19.5935C4.71368 19.765 4.83006 19.9125 4.98135 20.0171C5.13263 20.1216 5.31184 20.1782 5.49571 20.1796C5.67959 20.181 5.85964 20.1271 6.0125 20.0249L11.0068 16.6954L16.0012 20.0249C16.1574 20.1286 16.3417 20.182 16.5292 20.1779C16.7167 20.1738 16.8984 20.1124 17.0499 20.0019C17.2015 19.8914 17.3156 19.7372 17.3768 19.5599C17.4381 19.3827 17.4436 19.1909 17.3926 19.0105L15.715 13.1402L19.8756 9.396C20.148 9.15018 20.248 8.76678 20.1306 8.41915V8.41915Z" fill="#E77C40"/>
<path d="M47.1457 8.41915C47.0881 8.24934 46.9819 8.10013 46.8404 7.98994C46.699 7.87975 46.5283 7.81341 46.3495 7.7991L41.1204 7.38359L38.8576 2.37458C38.7855 2.21324 38.6683 2.07622 38.5201 1.98003C38.3719 1.88385 38.199 1.83262 38.0223 1.83252C37.8456 1.83242 37.6726 1.88347 37.5243 1.97949C37.376 2.07551 37.2586 2.21241 37.1864 2.37366L34.9236 7.38359L29.6944 7.7991C29.5187 7.81302 29.3508 7.87726 29.2106 7.98413C29.0705 8.09101 28.9641 8.236 28.9042 8.40175C28.8443 8.5675 28.8334 8.747 28.8729 8.91877C28.9123 9.09054 29.0004 9.24731 29.1266 9.37032L32.9909 13.1374L31.6243 19.0554C31.5828 19.2345 31.5961 19.422 31.6624 19.5935C31.7288 19.765 31.8452 19.9125 31.9965 20.0171C32.1478 20.1216 32.327 20.1782 32.5109 20.1796C32.6947 20.181 32.8748 20.1271 33.0276 20.0249L38.022 16.6954L43.0163 20.0249C43.1726 20.1286 43.3568 20.182 43.5443 20.1779C43.7318 20.1738 43.9135 20.1124 44.0651 20.0019C44.2166 19.8914 44.3307 19.7372 44.392 19.5599C44.4532 19.3827 44.4587 19.1909 44.4078 19.0105L42.7301 13.1402L46.8907 9.396C47.1631 9.15018 47.2631 8.76678 47.1457 8.41915V8.41915Z" fill="#E77C40"/>
<path d="M74.1569 8.41915C74.0993 8.24934 73.9932 8.10013 73.8517 7.98994C73.7102 7.87975 73.5395 7.81341 73.3608 7.7991L68.1316 7.38359L65.8688 2.37458C65.7967 2.21324 65.6795 2.07622 65.5313 1.98003C65.3831 1.88385 65.2102 1.83262 65.0335 1.83252C64.8568 1.83242 64.6839 1.88347 64.5355 1.97949C64.3872 2.07551 64.2698 2.21241 64.1976 2.37366L61.9348 7.38359L56.7056 7.7991C56.5299 7.81302 56.362 7.87726 56.2218 7.98413C56.0817 8.09101 55.9753 8.236 55.9154 8.40175C55.8555 8.5675 55.8447 8.747 55.8841 8.91877C55.9236 9.09054 56.0117 9.24731 56.1379 9.37032L60.0022 13.1374L58.6355 19.0554C58.594 19.2345 58.6073 19.422 58.6737 19.5935C58.74 19.765 58.8564 19.9125 59.0077 20.0171C59.159 20.1216 59.3382 20.1782 59.5221 20.1796C59.706 20.181 59.886 20.1271 60.0389 20.0249L65.0332 16.6954L70.0275 20.0249C70.1838 20.1286 70.368 20.182 70.5555 20.1779C70.743 20.1738 70.9248 20.1124 71.0763 20.0019C71.2278 19.8914 71.3419 19.7372 71.4032 19.5599C71.4644 19.3827 71.47 19.1909 71.419 19.0105L69.7414 13.1402L73.9019 9.396C74.1744 9.15018 74.2743 8.76678 74.1569 8.41915V8.41915Z" fill="#E77C40"/>
<path d="M101.171 8.41915C101.113 8.24934 101.007 8.10013 100.865 7.98994C100.724 7.87975 100.553 7.81341 100.374 7.7991L95.1453 7.38359L92.8825 2.37458C92.8104 2.21324 92.6932 2.07622 92.545 1.98003C92.3968 1.88385 92.2239 1.83262 92.0472 1.83252C91.8705 1.83242 91.6975 1.88347 91.5492 1.97949C91.4009 2.07551 91.2835 2.21241 91.2113 2.37366L88.9485 7.38359L83.7193 7.7991C83.5436 7.81302 83.3757 7.87726 83.2355 7.98413C83.0954 8.09101 82.989 8.236 82.9291 8.40175C82.8692 8.5675 82.8583 8.747 82.8978 8.91877C82.9372 9.09054 83.0253 9.24731 83.1515 9.37032L87.0158 13.1374L85.6492 19.0554C85.6077 19.2345 85.621 19.422 85.6873 19.5935C85.7537 19.765 85.8701 19.9125 86.0214 20.0171C86.1727 20.1216 86.3519 20.1782 86.5358 20.1796C86.7196 20.181 86.8997 20.1271 87.0525 20.0249L92.0469 16.6954L97.0412 20.0249C97.1975 20.1286 97.3817 20.182 97.5692 20.1779C97.7567 20.1738 97.9384 20.1124 98.09 20.0019C98.2415 19.8914 98.3556 19.7372 98.4169 19.5599C98.4781 19.3827 98.4836 19.1909 98.4327 19.0105L96.755 13.1402L100.916 9.396C101.188 9.15018 101.288 8.76678 101.171 8.41915V8.41915Z" fill="#E77C40"/>
<path d="M114.032 13.1374L112.665 19.0554C112.623 19.2346 112.636 19.4224 112.702 19.5943C112.768 19.7662 112.884 19.9141 113.036 20.0188C113.187 20.1235 113.367 20.1801 113.551 20.1812C113.735 20.1823 113.915 20.1278 114.068 20.0249L119.062 16.6954L124.056 20.0249C124.213 20.1287 124.397 20.1821 124.584 20.178C124.772 20.1739 124.954 20.1124 125.105 20.0019C125.257 19.8915 125.371 19.7372 125.432 19.56C125.493 19.3827 125.499 19.191 125.448 19.0105L123.77 13.1402L127.931 9.39603C128.064 9.27605 128.159 9.11963 128.204 8.94614C128.25 8.77264 128.243 8.58967 128.186 8.41986C128.128 8.25004 128.022 8.10083 127.88 7.99067C127.739 7.88051 127.568 7.81423 127.39 7.80004L122.16 7.38362L119.898 2.3746C119.825 2.21331 119.708 2.07635 119.56 1.98025C119.412 1.88415 119.239 1.83301 119.062 1.83301C118.885 1.83301 118.712 1.88415 118.564 1.98025C118.416 2.07635 118.299 2.21331 118.226 2.3746L115.964 7.38362L110.734 7.79913C110.559 7.81305 110.391 7.87729 110.251 7.98416C110.111 8.09104 110.004 8.23602 109.944 8.40178C109.884 8.56753 109.873 8.74703 109.913 8.9188C109.952 9.09057 110.04 9.24734 110.167 9.37035L114.032 13.1374V13.1374ZM116.649 9.16947C116.812 9.15658 116.97 9.09987 117.104 9.0053C117.238 8.91073 117.345 8.78179 117.412 8.63198L119.062 4.98047L120.712 8.63198C120.779 8.78179 120.886 8.91073 121.02 9.0053C121.154 9.09987 121.312 9.15658 121.475 9.16947L125.119 9.4584L122.118 12.1587C121.858 12.3936 121.754 12.7549 121.849 13.0925L122.999 17.1146L119.572 14.8297C119.422 14.7288 119.245 14.6749 119.063 14.6749C118.882 14.6749 118.705 14.7288 118.555 14.8297L114.974 17.2173L115.937 13.0475C115.972 12.8942 115.968 12.7343 115.923 12.5833C115.879 12.4323 115.796 12.2953 115.684 12.1853L112.897 9.46849L116.649 9.16947V9.16947Z" fill="#E77C40"/>
</g>
<defs>
<clipPath id="clip0">
<rect width="130.068" height="22.0136" fill="white"/>
</clipPath>
</defs>
</svg>
