<svg width="428" height="296" viewBox="0 0 428 296" fill="none" xmlns="http://www.w3.org/2000/svg">
<path d="M334.142 258.073C327.84 252.807 324.609 247.933 324.025 247.009L346.191 233.02C346.191 233.02 346.16 232.969 346.096 232.874C346.115 232.9 347.96 235.614 351.651 238.541C356.364 242.276 361.84 244.661 367.931 245.63C375.683 246.864 383.683 244.281 389.027 241.898C394.985 239.242 398.98 236.263 399.017 236.234L418.671 240.029L414.976 257.015C407.297 262.902 395.088 268.72 383.776 270.964C365.007 274.687 347.083 268.887 334.142 258.073Z" fill="#B75742"/>
<path d="M366.215 73.78L371.418 71.0868L376.588 73.8399C377.178 74.1541 377.871 73.656 377.761 72.9987L376.803 67.2237L381.024 63.1623C381.503 62.6993 381.245 61.887 380.585 61.7878L374.792 60.9114L372.229 55.647C371.937 55.0476 371.083 55.0434 370.785 55.6387L368.161 60.8742L362.358 61.6824C361.696 61.7754 361.429 62.5835 361.903 63.0527L366.076 67.1638L365.052 72.9284C364.936 73.5816 365.623 74.0859 366.215 73.78Z" fill="#86B1F2"/>
<path d="M355.305 179.532H99.334V206.301H355.305V179.532Z" fill="#F47257"/>
<path d="M287.223 274.279C229.5 243.788 166.805 225.019 102.437 218.963C104.822 191.059 107.206 163.156 109.591 135.253C184.014 142.256 256.505 163.956 323.244 199.211C311.236 224.233 299.228 249.255 287.223 274.279Z" fill="#3C8F7C"/>
<path d="M108.11 203.656C109.736 186.253 111.36 168.852 112.986 151.45C119.751 152.143 125.811 147.782 126.547 141.531C188.592 149.317 249.063 167.419 305.683 195.157C303.166 200.874 306.12 207.935 312.215 211.091C304.843 226.772 297.472 242.456 290.101 258.138C284.492 255.234 277.855 257.635 275.34 263.348C225.619 238.99 172.517 223.095 118.03 216.258C118.764 210.008 114.335 204.295 108.11 203.656Z" fill="#96D9C9"/>
<path d="M241.308 206.528C236.105 221.496 220.061 229.123 205.178 224.553C190.305 219.948 180.749 204.426 184.092 188.885C187.427 173.37 203.937 164.071 220.672 169.243C237.413 174.396 246.505 191.586 241.308 206.528Z" fill="#50BFA5"/>
<path d="M205.054 219.284C205.47 217.613 205.886 215.941 206.301 214.271C204.061 213.544 201.936 212.519 200.236 211.433C198.818 210.528 198.301 208.695 199.069 207.233C199.1 207.176 199.131 207.116 199.162 207.058C200.006 205.448 202.083 204.933 203.649 205.964C205.244 207.014 207.121 207.953 209.21 208.536C212.249 209.385 214.626 208.837 215.177 206.733C215.696 204.737 214.312 202.963 210.634 200.526C205.317 197.017 201.922 193.356 203.095 188.208C204.154 183.545 208.461 180.754 214.738 181.302C215.15 179.63 215.56 177.958 215.969 176.286C217.815 176.796 219.658 177.317 221.499 177.846C221.104 179.392 220.711 180.936 220.316 182.482C222.327 183.154 223.928 183.902 225.227 184.669C226.818 185.607 227.377 187.563 226.508 189.036C225.608 190.56 223.543 190.998 221.942 190.002C220.74 189.255 219.209 188.495 217.254 187.939C213.652 186.916 212.123 188.086 211.763 189.563C211.335 191.31 213.002 192.935 217.213 195.956C223.14 200.055 224.913 203.763 223.611 208.467C222.314 213.132 217.889 216.059 211.567 215.367C211.103 217.157 210.64 218.945 210.176 220.734C208.472 220.238 206.763 219.757 205.054 219.284Z" fill="#3C8F7C"/>
<path d="M175.279 188.304C160.568 184.912 145.713 182.149 130.755 180.026C131.101 177.343 131.446 174.66 131.794 171.978C146.963 174.131 162.024 176.932 176.943 180.371C176.388 183.015 175.834 185.66 175.279 188.304Z" fill="#50BFA5"/>
<path d="M289.998 228.999C276.306 222.311 262.377 216.22 248.242 210.74C249.136 208.2 250.032 205.662 250.925 203.122C265.256 208.677 279.383 214.853 293.265 221.635C292.176 224.091 291.086 226.546 289.998 228.999Z" fill="#50BFA5"/>
<path d="M314.191 178.505C254.635 190.936 197.926 215.846 147.047 251.926C133.299 228.227 119.552 204.528 105.804 180.828C164.632 139.112 230.202 110.31 299.062 95.9385C304.106 123.459 309.15 150.982 314.191 178.505Z" fill="#3C8F7C"/>
<path d="M142.729 236.151C134.257 221.284 125.785 206.415 117.313 191.547C122.692 187.8 124.74 180.483 121.811 175.045C171.937 141.815 226.635 117.79 283.845 103.869C285.165 110.014 291.269 113.751 297.521 112.389C300.796 129.54 304.069 146.691 307.344 163.843C301.59 165.097 298.025 171.223 299.343 177.364C249.103 189.588 201.071 210.687 157.052 239.867C154.124 234.434 147.68 232.704 142.729 236.151Z" fill="#96D9C9"/>
<path d="M242.646 153.813C247.125 169.019 239.518 185.275 225.994 191.098C212.455 196.885 196.775 190.618 190.606 176.135C184.445 161.681 191.465 143.801 206.691 137.279C221.914 130.74 238.179 138.631 242.646 153.813Z" fill="#50BFA5"/>
<path d="M222.975 186.985C222.354 185.392 221.732 183.8 221.109 182.209C219.048 183.054 216.911 183.587 215.053 183.806C213.504 183.988 212.103 182.858 211.857 181.208C211.847 181.142 211.836 181.076 211.828 181.01C211.557 179.195 212.802 177.465 214.532 177.289C216.293 177.11 218.2 176.665 220.066 175.801C222.783 174.545 224.233 172.6 223.469 170.576C222.743 168.66 220.736 168.129 216.667 168.528C210.792 169.117 206.252 168.362 204.254 163.524C202.444 159.144 204.074 154.188 209.01 150.637C208.383 149.047 207.756 147.456 207.13 145.866C208.776 145.099 210.425 144.343 212.08 143.595C212.647 145.075 213.216 146.552 213.783 148.032C215.641 147.288 217.238 146.867 218.624 146.65C220.319 146.385 221.818 147.584 221.996 149.308C222.178 151.091 220.898 152.749 219.164 152.976C217.863 153.146 216.309 153.514 214.557 154.314C211.329 155.789 210.851 157.691 211.406 159.092C212.06 160.754 214.195 160.986 218.98 160.713C225.633 160.204 229.004 162.027 230.657 166.595C232.291 171.128 230.652 176.266 225.6 179.733C226.254 181.45 226.906 183.166 227.557 184.883C226.027 185.574 224.498 186.274 222.975 186.985Z" fill="#3C8F7C"/>
<path d="M183.779 181.273C171.033 187.922 158.533 195.163 146.312 202.98C145.077 200.628 143.84 198.273 142.605 195.921C154.997 187.997 167.673 180.655 180.597 173.911C181.657 176.364 182.718 178.818 183.779 181.273Z" fill="#50BFA5"/>
<path d="M291.075 140.745C277.251 144.125 263.584 148.134 250.106 152.758C249.355 150.17 248.604 147.585 247.853 144.997C261.519 140.309 275.379 136.243 289.395 132.816C289.956 135.458 290.516 138.102 291.075 140.745Z" fill="#50BFA5"/>
<path d="M323.695 230.516C261.76 226.767 199.732 235.849 140.883 257.284C132.781 230.706 124.678 204.128 116.576 177.549C184.621 152.765 256.335 142.263 327.949 146.6C326.53 174.571 325.112 202.542 323.695 230.516Z" fill="#3C8F7C"/>
<path d="M140.28 240.876C135.348 224.241 130.416 207.609 125.483 190.974C131.688 188.773 135.426 182.235 133.79 176.196C191.229 157.319 251.055 148.559 311.014 150.246C310.888 156.544 316.068 161.775 322.585 162.114C321.832 179.58 321.079 197.047 320.326 214.512C314.328 214.202 309.367 219.186 309.243 225.477C256.589 223.995 204.054 231.688 153.614 248.265C151.977 242.232 145.99 238.85 140.28 240.876Z" fill="#96D9C9"/>
<path d="M258.53 187.662C259.425 203.565 248.094 217.283 233.329 219.333C218.559 221.346 204.475 211.125 201.737 195.477C199 179.855 210.127 164.411 226.742 162.135C243.355 159.839 257.64 171.786 258.53 187.662Z" fill="#50BFA5"/>
<path d="M231.294 214.554C231.05 212.849 230.803 211.142 230.559 209.437C228.321 209.71 226.078 209.66 224.185 209.379C222.607 209.143 221.481 207.678 221.622 206.018C221.628 205.952 221.632 205.884 221.638 205.818C221.794 203.988 223.43 202.645 225.186 202.932C226.974 203.226 228.968 203.3 231.019 202.959C234.004 202.463 235.895 200.965 235.609 198.805C235.336 196.756 233.47 195.713 229.343 195.02C223.38 194.032 219.056 192.1 218.204 186.889C217.43 182.17 220.203 177.807 225.925 175.678C225.675 173.973 225.424 172.268 225.174 170.562C226.984 170.257 228.797 169.961 230.611 169.676C230.828 171.257 231.046 172.84 231.265 174.421C233.28 174.194 234.962 174.208 236.385 174.366C238.127 174.558 239.335 176.116 239.108 177.832C238.874 179.605 237.217 180.872 235.444 180.63C234.114 180.448 232.49 180.395 230.566 180.705C227.022 181.277 226.105 182.991 226.329 184.495C226.589 186.277 228.65 187.067 233.46 188.069C240.173 189.34 243.09 191.996 243.664 196.856C244.226 201.676 241.404 206.214 235.587 208.23C235.833 210.065 236.081 211.898 236.327 213.734C234.65 213.996 232.97 214.271 231.294 214.554Z" fill="#3C8F7C"/>
<path d="M193.769 198.639C179.583 201.698 165.504 205.394 151.566 209.718C150.89 207.113 150.213 204.509 149.537 201.905C163.669 197.519 177.946 193.771 192.331 190.671C192.811 193.327 193.291 195.983 193.769 198.639Z" fill="#50BFA5"/>
<path d="M309.586 187.848C295.093 187.457 280.609 187.715 266.171 188.617C266.03 185.913 265.887 183.212 265.747 180.508C280.388 179.592 295.073 179.33 309.77 179.727C309.708 182.434 309.648 185.14 309.586 187.848Z" fill="#50BFA5"/>
<path d="M355.305 179.532H99.334V292.082H355.305V179.532Z" fill="#F47257"/>
<path d="M355.306 263.347H291.966C289.159 263.347 286.881 265.728 286.881 268.667C286.881 271.604 289.157 273.987 291.966 273.987H283.753C280.945 273.987 278.667 276.368 278.667 279.307C278.667 282.244 280.943 284.628 283.753 284.628H285.176C282.367 284.628 280.091 287.009 280.091 289.948C280.091 290.708 280.244 291.43 280.519 292.083H355.306V263.347Z" fill="#B75742"/>
<path d="M341.783 185.075H108.766V193.816H341.783V185.075Z" fill="#B75742"/>
<path d="M210.27 290.684H105.116C100.366 290.684 96.5161 286.837 96.5161 282.092V229.377C96.5161 224.632 100.366 220.785 105.116 220.785H210.27C215.02 220.785 218.87 224.632 218.87 229.377V282.092C218.87 286.837 215.02 290.684 210.27 290.684Z" fill="#3C8F7C"/>
<path d="M134.512 234.686H104.381V252.186H134.512V234.686Z" fill="#F7CC7F"/>
<path d="M211.125 230.252H157.692V233.52H211.125V230.252Z" fill="#F7CC7F"/>
<path d="M207.153 267.589H108.82V271.626H207.153V267.589Z" fill="#F7CC7F"/>
<path d="M207.153 277.093H108.82V281.129H207.153V277.093Z" fill="#F7CC7F"/>
<path d="M220.375 208.269H111.727V211.171H220.375V208.269Z" fill="#B75742"/>
<path d="M282.563 189.527C295.927 189.527 306.76 178.704 306.76 165.353C306.76 152.002 295.927 141.178 282.563 141.178C269.199 141.178 258.366 152.002 258.366 165.353C258.366 178.704 269.199 189.527 282.563 189.527Z" fill="#FAE0B2"/>
<path d="M299.182 153.7C305.624 162.871 303.404 175.52 294.227 181.957C285.047 188.393 272.386 186.175 265.944 177.007C259.501 167.836 261.721 155.186 270.899 148.75C280.078 142.313 292.739 144.531 299.182 153.7Z" fill="#F7CC7F"/>
<path d="M284.907 179.623L284.021 176.353C282.525 176.686 280.998 176.8 279.699 176.734C278.613 176.678 277.759 175.789 277.744 174.702L277.742 174.572C277.726 173.375 278.731 172.41 279.927 172.488C281.145 172.569 282.49 172.486 283.837 172.122C285.8 171.591 286.938 170.471 286.566 169.096C286.212 167.788 284.886 167.261 282.103 167.089C278.083 166.848 275.102 165.806 274.198 162.468C273.379 159.44 274.87 156.488 278.361 154.771L277.475 151.501L280.852 150.589L281.671 153.617C282.939 153.334 284.013 153.225 284.935 153.221C286.063 153.216 286.982 154.128 286.996 155.254C287.011 156.42 286.057 157.369 284.892 157.342C284.017 157.321 282.966 157.402 281.749 157.73C279.511 158.336 279.048 159.494 279.31 160.459C279.619 161.594 281.019 161.99 284.244 162.3C288.734 162.637 290.9 164.084 291.738 167.18C292.567 170.243 291.105 173.445 287.331 175.202L288.281 178.712L284.907 179.623Z" fill="white"/>
<path d="M322.497 259.816C331.947 250.375 331.947 235.069 322.497 225.628C313.048 216.188 297.727 216.188 288.277 225.628C278.828 235.069 278.828 250.375 288.277 259.816C297.727 269.257 313.048 269.257 322.497 259.816Z" fill="#FAE0B2"/>
<path d="M322.009 231.069C328.452 240.24 326.232 252.89 317.055 259.326C307.875 265.763 295.214 263.545 288.771 254.376C282.329 245.205 284.549 232.555 293.726 226.119C302.904 219.683 315.567 221.898 322.009 231.069Z" fill="#F7CC7F"/>
<path d="M307.735 256.99L306.849 253.72C305.354 254.053 303.827 254.166 302.528 254.1C301.441 254.044 300.587 253.156 300.573 252.068L300.57 251.938C300.556 250.741 301.561 249.776 302.755 249.855C303.974 249.935 305.316 249.853 306.665 249.489C308.629 248.958 309.766 247.837 309.394 246.463C309.04 245.155 307.714 244.628 304.934 244.456C300.912 244.212 297.933 243.172 297.029 239.834C296.209 236.806 297.701 233.855 301.191 232.137L300.306 228.868L303.682 227.956L304.501 230.984C305.769 230.701 306.843 230.591 307.766 230.587C308.893 230.583 309.812 231.495 309.826 232.621C309.841 233.787 308.887 234.733 307.722 234.709C306.847 234.688 305.796 234.768 304.58 235.097C302.341 235.703 301.878 236.86 302.139 237.823C302.447 238.958 303.848 239.357 307.073 239.667C311.562 240.004 313.728 241.451 314.566 244.547C315.396 247.61 313.933 250.812 310.159 252.569L311.109 256.078L307.735 256.99Z" fill="white"/>
<path d="M258.786 236.626C272.149 236.403 282.8 225.4 282.577 212.05C282.354 198.7 271.341 188.059 257.978 188.282C244.616 188.505 233.964 199.508 234.187 212.858C234.41 226.208 245.424 236.849 258.786 236.626Z" fill="#FAE0B2"/>
<path d="M266.614 230.995C276.858 226.438 281.464 214.447 276.902 204.213C272.341 193.98 260.339 189.378 250.095 193.935C239.852 198.493 235.246 210.483 239.807 220.717C244.369 230.951 256.371 235.553 266.614 230.995Z" fill="#F7CC7F"/>
<path d="M252.079 225.482L253.233 222.299C251.816 221.714 250.502 220.93 249.476 220.128C248.62 219.459 248.431 218.241 249.044 217.342L249.118 217.235C249.793 216.247 251.172 216.032 252.106 216.782C253.057 217.547 254.203 218.252 255.517 218.727C257.429 219.419 259.005 219.157 259.491 217.815C259.953 216.542 259.173 215.35 256.994 213.611C253.843 211.104 252.002 208.541 253.181 205.292C254.251 202.342 257.17 200.784 261.014 201.381L262.168 198.198L265.456 199.389L264.386 202.338C265.586 202.834 266.53 203.361 267.287 203.889C268.212 204.533 268.439 205.807 267.804 206.737C267.146 207.7 265.82 207.927 264.881 207.237C264.177 206.718 263.269 206.181 262.086 205.753C259.905 204.963 258.86 205.645 258.519 206.584C258.118 207.69 259.036 208.818 261.498 210.924C264.978 213.779 265.919 216.203 264.825 219.221C263.743 222.204 260.704 223.985 256.603 223.258L255.362 226.676L252.079 225.482Z" fill="white"/>
<path d="M341.784 226.398H232.195V285.075H341.784V226.398Z" fill="#F48C7F"/>
<path d="M286.881 268.665C286.881 271.602 289.157 273.985 291.966 273.985H283.753C280.945 273.985 278.667 276.366 278.667 279.305C278.667 282.242 280.943 284.625 283.753 284.625H285.176C284.45 284.625 283.759 284.787 283.132 285.074H341.782V263.347H291.966C289.159 263.347 286.881 265.728 286.881 268.665Z" fill="#B75742"/>
<path d="M9.74512 290.365C9.74512 291.314 10.4589 292.081 11.3381 292.081H408.657C409.537 292.081 410.25 291.314 410.25 290.365C410.25 289.419 409.537 288.65 408.657 288.65H11.3381C10.4589 288.65 9.74512 289.417 9.74512 290.365Z" fill="#13375B"/>
<path d="M355.949 295.265H290.538C287.912 295.265 285.786 293.138 285.786 290.517C285.786 287.894 287.912 285.77 290.538 285.77H355.949C358.574 285.77 360.701 287.894 360.701 290.517C360.699 293.14 358.572 295.265 355.949 295.265Z" fill="#F7CC7F"/>
<path d="M354.619 285.769H289.21C286.584 285.769 284.458 283.645 284.458 281.022C284.458 278.399 286.584 276.274 289.21 276.274H354.619C357.244 276.274 359.371 278.399 359.371 281.022C359.371 283.645 357.242 285.769 354.619 285.769Z" fill="#FAE0B2"/>
<path d="M362.295 276.274H296.884C294.259 276.274 292.132 274.149 292.132 271.526C292.132 268.903 294.259 266.778 296.884 266.778H362.295C364.921 266.778 367.048 268.903 367.048 271.526C367.048 274.149 364.919 276.274 362.295 276.274Z" fill="#F7CC7F"/>
<path d="M279.098 70.6877L279.932 76.3138L271.021 78.6515L271.222 87.0245L264.839 89.8624L266.277 93.0909L274.813 89.294L274.623 81.3591L283.893 78.9264L282.64 70.4624L279.098 70.6877Z" fill="#466EB6"/>
<path d="M194.83 52.8806L196.548 48.6228C194.657 47.7609 192.915 46.6385 191.562 45.5038C190.432 44.5572 190.236 42.8954 191.109 41.709L191.214 41.5663C192.176 40.258 194.053 40.0368 195.281 41.0971C196.533 42.1781 198.054 43.1868 199.81 43.8937C202.367 44.923 204.515 44.6419 205.237 42.8499C205.924 41.1468 204.922 39.4932 202.055 37.0377C197.907 33.493 195.536 29.9338 197.288 25.5871C198.879 21.6434 202.907 19.6716 208.086 20.6616L209.803 16.4038L214.199 18.1731L212.608 22.1167C214.209 22.8464 215.463 23.6049 216.462 24.3552C217.685 25.2729 217.931 27.007 217.025 28.2369C216.088 29.5101 214.282 29.756 213.043 28.7742C212.114 28.0384 210.91 27.2675 209.327 26.6288C206.412 25.4548 204.964 26.3312 204.457 27.5858C203.861 29.0636 205.051 30.6386 208.284 33.6067C212.863 37.6371 214.021 40.969 212.395 45.0036C210.785 48.9927 206.586 51.2601 201.066 50.0799L199.223 54.6519L194.83 52.8806Z" fill="#96D9C9"/>
<path d="M202.954 98.3113C203.403 99.0368 203.275 99.9793 202.648 100.558C201.417 101.695 199.458 103.024 197.072 103.917C193.582 105.225 189.707 105.351 186.215 103.768C184.032 102.778 182.036 100.994 180.627 98.6895L178.564 99.4626C177.863 99.7251 177.081 99.3716 176.818 98.6709L176.798 98.6172C176.535 97.9165 176.889 97.1352 177.59 96.8727L179.282 96.2382C179.011 95.676 178.819 95.3267 178.699 95.0104C178.5 94.4813 178.314 93.8282 178.163 93.1006L176.417 93.7558C175.716 94.0183 174.934 93.6649 174.671 92.9642C174.408 92.2635 174.762 91.4822 175.463 91.2197L177.58 90.426C177.249 87.7783 177.598 85.174 178.589 82.9955C180.273 79.2895 183.447 76.6522 187.096 75.2839C189.223 74.486 190.973 74.2504 192.388 74.2359C193.373 74.2256 194.188 74.9945 194.234 75.9763L194.236 76.0073C194.283 77.0263 193.489 77.8778 192.469 77.9192C191.311 77.9646 189.941 78.1961 188.354 78.7914C186.027 79.6636 183.979 81.2758 182.801 83.7665C182.139 85.2195 181.831 86.964 182.181 88.7002L194.081 84.2377C194.782 83.9752 195.564 84.3287 195.827 85.0293C196.09 85.73 195.736 86.5113 195.034 86.7738L182.607 91.4347C182.772 92.0362 182.938 92.6376 183.077 93.0076C183.254 93.483 183.434 93.9584 183.724 94.5723L196.179 89.901C196.894 89.6323 197.693 89.9941 197.96 90.7092C198.229 91.4244 197.867 92.2222 197.151 92.4888L185.224 96.9616C186.169 98.3547 187.407 99.3985 188.716 99.9917C191.315 101.126 193.708 101.073 196.352 100.083C197.964 99.4791 199.305 98.6482 200.325 97.8462C201.164 97.189 202.391 97.4039 202.954 98.3113Z" fill="#86B1F2"/>
<path d="M170.464 55.9335L165.062 56.4812L163.219 47.8933L155.221 47.7217L152.79 41.521L149.647 42.7487L152.898 51.0432L160.478 51.2065L162.396 60.1417L170.526 59.317L170.464 55.9335Z" fill="#50BFA5"/>
<path d="M232.904 49.5122L238.685 51.4179C238.685 51.4179 247.85 48.4498 248.752 46.5855C249.654 44.719 249.908 40.1904 251.214 40.0685C252.517 39.9445 255.039 40.3682 255.639 43.4686C256.076 45.7174 252.778 52.2199 253.293 52.9123C253.616 53.3463 256.905 54.5348 259.324 55.3657C260.915 55.9114 262.061 57.3107 262.305 58.9972V59.0014C262.47 60.1423 261.823 61.2522 260.755 61.6636L259.092 62.3043L259.622 64.0198C260.017 65.2972 259.315 66.6696 258.053 67.0933L256.767 67.5232L257.178 68.5691C257.708 69.9147 256.961 71.4421 255.577 71.8431L254.454 72.1697L254.499 72.4694C254.692 73.7178 253.91 74.9207 252.695 75.237L251.578 75.5305L236.184 70.4541C234.742 69.9787 233.413 69.2078 232.282 68.1909L227.17 65.4956C226.619 65.2062 226.367 64.549 226.574 63.9537L231.314 50.3183C231.547 49.6548 232.253 49.2972 232.904 49.5122Z" fill="#FAE0B2"/>
<path d="M141.463 110.6L142.688 104.539L148.379 102.111C149.027 101.834 149.076 100.935 148.462 100.59L143.07 97.5533L142.518 91.396C142.456 90.6953 141.614 90.3708 141.095 90.8462L136.539 95.0296L130.506 93.653C129.819 93.4959 129.25 94.1946 129.544 94.8353L132.12 100.457L128.944 105.763C128.582 106.367 129.072 107.123 129.772 107.042L135.918 106.334L139.99 110.99C140.453 111.521 141.324 111.29 141.463 110.6Z" fill="#F7CC7F"/>
<path d="M67.1996 259.458C67.1996 259.458 59.6152 264.921 58.4194 266.552C56.6982 268.9 71.269 273.29 69.6802 270.541C69.314 269.909 68.2651 267.782 68.2195 267.573C67.9754 266.453 71.0663 263.439 71.0663 263.439L67.1996 259.458Z" fill="#F7A491"/>
<path d="M73.621 275.135L68.4695 267.864C68.4695 267.864 65.2545 267.118 61.9526 263.408C61.9526 263.408 58.9859 264.538 57.1611 266.992C57.1611 266.992 60.6099 270.704 65.9227 274.883C65.9227 274.883 69.0715 277.669 73.4244 279.139C77.7773 280.606 73.621 275.135 73.621 275.135Z" fill="#F7CC7F"/>
<path d="M3.8097 159.884C3.8097 159.884 4.74275 160.707 5.0717 160.959C5.45857 161.252 6.68126 162.048 6.68126 162.048C6.68126 162.048 11.1086 164.564 11.2576 164.233C11.4086 163.902 11.4003 162.947 11.1831 162.695C10.9638 162.445 10.3266 162.185 10.1073 161.934C9.88799 161.684 9.81351 161.176 10.0949 160.897C10.3762 160.616 11.8886 161.443 11.8886 161.443C11.8886 161.443 13.1133 162.123 13.6264 162.945C15.4015 165.791 14.8636 165.957 15.1015 166.316C15.3829 166.74 21.5915 169.557 21.5915 169.557C21.5915 169.557 40.1553 177.267 41.1566 177.688H41.169C41.3035 178.548 40.8442 179.338 40.6084 180.098C40.1636 182.748 39.3753 182.924 38.7733 185.479C35.9266 184.04 16.2145 173.191 14.2119 172.06C14.2119 172.06 11.21 171.548 9.33353 171.165C7.45708 170.783 5.82269 169.596 5.30755 169.408C5.231 169.382 3.55316 168.658 1.70774 167.228C0.116794 165.996 2.17116 166.461 2.17116 166.461C2.17116 166.461 5.51443 168.232 5.60132 167.951C5.66753 167.734 3.78901 166.872 2.016 165.529C1.56085 165.184 1.11191 164.841 0.702279 164.522C-0.373524 163.687 -0.185259 162.811 1.07467 163.511C1.51948 163.76 2.24978 164.187 2.72976 164.564C3.24697 164.971 3.85107 165.184 4.33519 165.463C5.29927 166.015 5.99647 166.43 5.99647 166.378C5.99647 166.312 6.26129 166.289 5.78752 165.909C5.21858 165.45 3.80142 164.733 3.01526 163.997C2.57045 163.58 1.58775 162.759 1.58775 162.759C1.58775 162.759 0.325748 161.252 0.387814 161.153C0.720899 160.612 1.86704 161.409 2.40081 162.054C2.94698 162.298 3.95658 163.189 3.95658 163.189C3.95658 163.189 6.39162 164.547 6.57989 164.214C6.66058 164.074 5.25996 163.065 4.03934 161.87C2.90561 160.76 1.93532 159.46 2.11531 159.21C2.4215 158.78 3.8097 159.884 3.8097 159.884Z" fill="#F8A492"/>
<path d="M55.5967 203.306L56.7966 209.234L86.9584 236.643L65.3679 258.472L71.1979 264.424C71.1979 264.424 103.085 241.031 104.233 237.966C106.002 233.245 81.3766 201.983 81.3766 201.983L55.5967 203.306Z" fill="#B75742"/>
<path d="M34.683 274.994C34.683 274.994 28.5985 281.619 27.4027 283.25C25.6814 285.598 38.5311 289.064 36.9422 286.315C36.5761 285.682 35.5271 283.556 35.4816 283.347C35.2375 282.226 38.3284 279.213 38.3284 279.213L34.683 274.994Z" fill="#F7A491"/>
<path d="M43.7165 286.103L35.3418 283.046C35.3418 283.046 32.1764 284.483 27.3498 283.307C27.3498 283.307 25.6471 285.696 25.5396 288.749C25.5396 288.749 41.4138 290.771 45.8308 289.508C50.2499 288.245 43.7165 286.103 43.7165 286.103Z" fill="#F7CC7F"/>
<path d="M56.6293 206.053L57.9844 243.453L31.2217 276.236L38.4627 280.199C38.4627 280.199 68.0679 254.813 71.3181 247.742C73.3352 243.356 80.119 203.711 80.119 203.711L56.6293 206.053Z" fill="#F47458"/>
<path d="M80.9595 202.985C78.5058 197.454 78.7893 157.8 69.2436 148.511C65.8837 149.078 63.488 149.396 62.9273 149.543C62.4287 153.627 61.8805 168.616 61.5453 182.355C61.3219 191.507 61.5515 201.106 60.424 206.164C59.7247 209.301 83.2001 208.038 80.9595 202.985Z" fill="#FAE0B2"/>
<path d="M55.1166 151.589C52.4374 152.199 50.4637 152.629 46.9508 157.813C43.5869 162.776 36.1204 174.553 36.1204 174.553L16.4518 165.826L15.5332 175.778C15.5332 175.778 37.7837 187.334 40.9222 186.293C44.0606 185.251 52.8884 172.362 53.5401 171.492C53.6932 171.287 52.7995 185.257 52.7995 187.49C52.7995 189.722 48.5335 209.157 48.5335 209.157C48.5335 209.157 59.3578 211.819 61.4701 206.985C67.9476 192.163 62.9762 149.531 62.9762 149.531C62.9762 149.531 57.0448 151.149 55.1166 151.589Z" fill="#466EB6"/>
<path d="M95.5156 109.152C94.688 108.46 94.328 106.804 94.1915 105.736L93.8232 104.324C94.1584 104.187 100.719 103.253 102.697 103.204C102.889 103.828 102.984 104.357 102.924 104.694C102.63 106.31 100.566 116.796 100.566 116.796L94.9177 116.907C94.9156 116.907 96.1445 110.69 95.5156 109.152Z" fill="#F7A491"/>
<path d="M71.4556 150.832C71.4556 150.832 75.3305 161.851 78.5207 160.263C81.7109 158.676 99.6292 140.425 99.8051 139.545C99.983 138.662 101.222 116.263 101.222 116.263L94.1343 114.851L90.0587 133.195C90.0587 133.195 76.9463 145.718 74.2899 146.952C71.6335 148.186 71.4556 150.832 71.4556 150.832Z" fill="#466EB6"/>
<path d="M81.9165 205.635C84.0619 205.635 84.8542 205.339 86.2838 204.909C86.2838 204.909 82.1978 181.903 79.8228 159.088C78.8835 150.077 78.0125 146.381 74.2927 147.034C73.2169 147.222 70.3019 148.332 69.2427 148.51C78.5939 174.946 78.627 195.292 79.9511 201.193C80.6152 204.155 81.1944 205.654 81.9165 205.635Z" fill="#466EB6"/>
<path d="M68.2565 144.517L69.2371 148.51C69.2371 148.51 69.4605 151.987 67.8448 152.299C65.8959 152.675 63.0016 149.763 63.0016 149.763L61.3237 138.498L68.2565 144.517Z" fill="#F7A491"/>
<path d="M68.2565 144.517L69.2371 148.51C69.2371 148.51 69.4605 151.987 67.8448 152.299C65.8959 152.675 63.0016 149.763 63.0016 149.763L61.3237 138.498L68.2565 144.517Z" fill="#F7A491"/>
<path d="M61.3398 138.554L68.256 144.519L68.9884 147.501C66.3444 146.865 62.5749 143.959 61.3398 138.554Z" fill="#F47458"/>
<path d="M68.2782 128.19C69.9499 128.184 71.456 129.346 72.0436 131.012C72.5318 132.395 73.1545 134.443 73.5518 136.795C74.2841 141.127 71.8139 145.092 69.6664 145.408C67.519 145.724 62.4006 144.302 61.2689 138.167C60.7848 135.536 60.1455 132.087 62.3116 130.274C63.9957 128.864 66.3563 128.197 68.2782 128.19Z" fill="#F7A491"/>
<path d="M61.9693 142.843C61.9693 142.843 54.3973 136.101 54.0663 130.832C53.7353 125.566 58.6053 122.743 62.7699 122.596C64.6505 122.53 65.9229 122.614 67.8655 122.858C72.0363 123.383 74.7403 125.231 73.7886 128.646C72.5101 133.23 63.854 129.363 62.0831 130.785C60.6225 131.959 62.9913 134.784 61.5721 135.861C60.2377 136.874 60.9183 136.531 61.359 138.457C61.7997 140.384 61.9693 142.843 61.9693 142.843Z" fill="#184655"/>
<path d="M59.0504 136.733C59.2387 137.996 60.0104 138.926 60.7759 138.814C61.5413 138.703 62.0089 137.587 61.8206 136.326C61.6324 135.063 60.8607 134.133 60.0952 134.244C59.3297 134.356 58.8622 135.472 59.0504 136.733Z" fill="#F7A491"/>
<path d="M95.8989 104.307C95.8989 104.307 97.1258 105.004 98.3443 106.618C98.3443 106.618 101.539 104.572 101.427 103.925C101.278 103.065 98.0133 104.661 98.0133 104.661L95.8989 104.307Z" fill="#F47458"/>
<path d="M13.5502 61.9462L99.7842 106.306C104.425 108.693 110.292 106.544 112.888 101.507L134.909 58.7777C137.506 53.7406 135.848 47.7218 131.208 45.3345L44.9741 0.974557C40.3336 -1.41272 34.4664 0.736863 31.8699 5.77392L9.84907 48.501C7.25266 53.5401 8.90981 59.559 13.5502 61.9462Z" fill="#96D9C9"/>
<path d="M17.0272 34.5775L10.3462 47.5405L113.387 100.546L120.068 87.5834L17.0272 34.5775Z" fill="#355389"/>
<path d="M65.9853 18.779L43.2769 7.07422L36.7782 19.6585L59.4866 31.3633L65.9853 18.779Z" fill="#F7CC7F"/>
<path d="M95.876 104.239C95.725 103.834 95.4312 103.268 95.576 103.047C96.4946 101.643 95.5036 100.118 94.8354 101.311C94.4464 102.003 93.7678 103.53 93.8257 104.322C93.8671 104.897 94.4505 107.088 94.4505 107.088C94.4505 107.088 96.7263 106.536 95.876 104.239Z" fill="#F7A491"/>
<path d="M355.645 251.85C355.645 251.85 355.113 258.453 355.546 260.601C355.777 261.75 357.06 264.117 356.472 265.198C355.885 266.279 355.21 266.55 355.21 266.55L339.942 266.791C339.111 266.804 339.661 266.279 340.331 265.795C341.43 265.002 342.315 264.479 345.822 262.813C346.049 262.703 346.883 262.184 347.183 262.002C347.945 261.546 348.71 260.826 349.368 260.107C350.464 258.908 350.56 253.092 350.56 253.092L355.645 251.85Z" fill="#F7A491"/>
<path d="M343.712 164.064C343.712 164.064 337.15 160.831 338.412 167.86C339.674 174.89 349.29 253.947 349.29 253.947L358.295 254.447C358.295 254.447 359.446 228.09 359.193 224.306C358.941 220.521 357.449 214.666 357.449 214.666L356.686 191.283L348.189 162.412L343.712 164.064Z" fill="#355389"/>
<path d="M347.181 261.997C351.22 263.014 354.205 262.324 355.875 261.663C356.305 262.861 356.876 264.366 356.574 265.234C356.204 266.296 355.72 266.768 355.254 266.78C351.565 266.875 341.699 266.772 338.885 266.809C338.492 266.813 338.275 266.363 338.53 266.067C339.227 265.247 346.881 262.179 347.181 261.997Z" fill="#3C8F7C"/>
<path d="M338.412 116.552C338.412 116.552 332.863 105.884 332.003 101.97C331.142 98.0529 328.161 78.3345 328.411 77.0634C328.662 75.7943 333.377 72.7374 332.795 71.6584C332.214 70.5795 327.722 70.5774 326.694 70.6684C325.666 70.7614 323.599 71.3587 322.716 72.0883C321.83 72.818 323.711 96.4489 324.272 101.536C324.832 106.624 331.726 122.292 331.726 122.292L338.412 116.552Z" fill="#F7A491"/>
<path d="M381.645 199.68C381.645 199.68 386.221 194.885 387.241 192.948C387.787 191.911 388.282 189.265 389.422 188.796C390.562 188.327 391.255 188.542 391.255 188.542L403.265 197.965C403.918 198.477 403.161 198.542 402.334 198.494C400.981 198.42 399.963 198.269 396.189 197.355C395.943 197.295 394.969 197.175 394.621 197.126C393.742 197.002 392.695 197.078 391.729 197.223C390.121 197.465 386.379 201.921 386.379 201.921L381.645 199.68Z" fill="#F7A491"/>
<path d="M394.617 197.126C392.124 193.795 389.368 192.453 387.655 191.916C388.077 190.713 388.539 189.142 389.321 188.658C390.279 188.067 390.938 188.189 391.309 188.474C394.232 190.723 401.887 196.872 404.094 198.615C404.402 198.859 404.287 199.344 403.904 199.417C402.845 199.611 394.964 197.176 394.617 197.126Z" fill="#3C8F7C"/>
<path d="M381.752 113.302C378.903 107.333 372.591 104.047 366.478 105.636C364.285 102.67 360.892 100.595 357.362 100.097C350.399 99.1111 341.414 102.486 342.33 109.747C340.131 114.828 340.669 121.826 345.063 125.257C344.256 131.934 350.957 137.857 358.887 137.057C362.077 141.458 367.624 144.039 372.813 143.033C374.058 142.791 375.949 142.338 376.274 142.394C375.868 142.349 385.319 148.533 391.838 137.52C398.493 126.287 391.941 113.724 381.752 113.302Z" fill="#184655"/>
<path d="M341.07 166.61C341.07 166.61 355.788 160.072 356.019 160.819C357.865 166.757 363.606 164.841 367.013 175.299C368.441 179.679 369.905 208.812 369.905 208.812C369.905 208.812 375.709 204.001 384.003 195.592C384.64 194.947 390.873 200.871 390.873 200.871C374.411 223.093 367.309 224.252 364.562 223.008C358.827 220.412 346.728 184.082 346.747 184.086C345.299 181.256 341.07 166.61 341.07 166.61Z" fill="#466EB6"/>
<path d="M365.469 125.569C365.469 125.569 386.743 125.542 391.299 125.28C395.422 125.042 411.772 125.458 412.412 125.383C413.051 125.309 417.278 118.159 417.979 118.926C418.682 119.693 415.627 122.473 416.572 123.192C417.518 123.914 427.663 122.299 427.529 123.048C427.276 124.451 421.357 124.271 421.364 124.949C421.37 125.625 427.56 124.569 427.98 125.693C428.4 126.818 422.026 126.152 421.771 126.652C421.517 127.155 427.684 128.072 427.053 129.118C426.71 129.687 421.589 128.169 421.614 128.945C421.639 129.718 425.375 131.479 424.916 132.094C424.459 132.71 421.984 130.203 419.816 130.172C417.648 130.141 416.096 129.011 412.635 129.959C410.926 130.429 397.882 132.02 386.859 132.963C375.559 133.928 366.297 134.234 366.297 134.234L365.469 125.569Z" fill="#F7A491"/>
<path d="M333.924 140.596C333.643 137.183 334.315 134.554 334.468 133.424C333.436 129.879 331.237 122.316 330.446 120.83C330.446 120.83 334.15 113.718 337.942 113.767C337.942 113.767 341.815 122.488 344.808 124.048C344.852 124.038 345.867 124.501 346.314 124.497C349.205 124.476 359.307 124.17 361.191 124.137L360.13 138.454C352.811 152.788 354.793 160.312 357.577 163.094C358.887 164.402 339.311 169.714 338.409 167.86C337.348 165.674 334.495 147.495 333.924 140.596Z" fill="#F7CC7F"/>
<path d="M356.059 124.677C357.923 123.788 371.405 124.232 371.405 124.232C371.405 124.232 373.29 133.612 371.767 135.867C371.767 135.867 359.712 137.659 360.054 138.647L356.059 124.677Z" fill="#F7CC7F"/>
<path d="M352.526 118.649C352.526 118.649 352.29 123.765 352.528 125.896C352.768 128.027 350.339 133.023 345.819 133.109C341.298 133.196 345.155 128.316 345.552 126.218C345.949 124.12 346.423 115.913 346.423 115.913L352.526 118.649Z" fill="#F7A491"/>
<path d="M346.425 115.913C346.425 115.913 346.315 117.818 346.156 120.028C347.581 121.727 349.772 122.595 352.437 121.561C352.466 119.978 352.526 118.649 352.526 118.649L346.425 115.913Z" fill="#F47458"/>
<path d="M352.899 103.404C352.899 103.404 355.458 104.168 356.896 106.727C358.332 109.286 358.938 116.568 353.419 119.567C347.899 122.566 344.115 117.525 344.367 112.88C344.618 108.234 346.039 102.11 352.899 103.404Z" fill="#F7A491"/>
<path d="M343.256 111.345C343.63 112.496 344.477 113.253 345.149 113.036C345.819 112.819 346.061 111.709 345.687 110.557C345.312 109.406 344.466 108.65 343.796 108.867C343.123 109.084 342.883 110.194 343.256 111.345Z" fill="#F7A491"/>
<path d="M352.131 103.199C352.131 103.199 354.935 110.855 357.8 111.719C360.667 112.582 360.367 116.317 360.367 116.317C360.367 116.317 360.897 107.682 358.305 105.514C355.71 103.345 352.131 103.199 352.131 103.199Z" fill="#184655"/>
<path d="M356.533 113.183C356.068 114.363 356.335 115.574 357.133 115.89C357.932 116.205 358.956 115.504 359.424 114.324C359.889 113.144 359.622 111.932 358.824 111.616C358.025 111.302 357.001 112.003 356.533 113.183Z" fill="#F7A491"/>
<path d="M321.915 73.9093C321.915 73.9093 328.149 74.1821 328.881 74.1821C329.613 74.1821 331.742 71.9829 331.742 71.9829L321.915 73.9093Z" fill="#F47458"/>
<path d="M327.823 73.5912C340.859 70.6552 349.045 57.7171 346.106 44.693C343.168 31.6689 330.217 23.4908 317.181 26.4267C304.145 29.3626 295.959 42.3008 298.898 55.3249C301.836 68.349 314.787 76.5271 327.823 73.5912Z" fill="#FAE0B2"/>
<path d="M339.129 38.3519C345.571 47.5228 343.352 60.1722 334.174 66.6086C324.995 73.0449 312.333 70.8271 305.891 61.6584C299.449 52.4875 301.668 39.838 310.846 33.4017C320.023 26.9654 332.687 29.1831 339.129 38.3519Z" fill="#F7CC7F"/>
<path d="M324.853 64.2751L323.968 61.0052C322.472 61.338 320.945 61.4517 319.644 61.3856C318.558 61.3297 317.703 60.441 317.689 59.3538L317.687 59.2236C317.67 58.0268 318.676 57.0616 319.872 57.1401C321.09 57.2207 322.433 57.1381 323.782 56.7743C325.745 56.2431 326.883 55.1228 326.511 53.7483C326.157 52.44 324.831 51.9129 322.048 51.7414C318.028 51.4975 315.047 50.4578 314.143 47.1197C313.324 44.0917 314.815 41.1402 318.306 39.4226L317.42 36.1527L320.796 35.2412L321.616 38.2692C322.884 37.9861 323.958 37.8765 324.88 37.8724C326.008 37.8683 326.926 38.7798 326.941 39.9062C326.955 41.072 326.002 42.0186 324.837 41.9938C323.962 41.9731 322.911 42.0537 321.694 42.3824C319.456 42.988 318.992 44.1455 319.253 45.1086C319.561 46.2434 320.962 46.6402 324.187 46.9503C328.677 47.2872 330.843 48.734 331.681 51.8302C332.51 54.8934 331.048 58.095 327.274 59.8519L328.224 63.3615L324.853 64.2751Z" fill="white"/>
<path d="M328.881 74.1822L331.455 71.8714C331.455 71.8714 330.24 70.4204 330.745 70.1434C331.566 69.6907 332.971 71.4435 332.845 71.8672C332.719 72.293 331.21 73.6654 331.21 73.6654L328.881 74.1822Z" fill="#F7A491"/>
</svg>
